<?xml version="1.0" encoding="utf-8"?>
<!-- Generator: Adobe Illustrator 23.0.1, SVG Export Plug-In . SVG Version: 6.00 Build 0)  -->
<svg version="1.1" id="Layer_1" xmlns="http://www.w3.org/2000/svg" xmlns:xlink="http://www.w3.org/1999/xlink" x="0px" y="0px"
	 viewBox="0 0 300 300" style="enable-background:new 0 0 300 300;" xml:space="preserve">
<style type="text/css">
	.st0{fill:#FAD5E5;}
	.st1{fill:#FFFFFF;}
	.st2{fill:#FFCD00;}
	.st3{clip-path:url(#SVGID_2_);}
	.st4{clip-path:url(#SVGID_4_);fill:#FBD6E6;}
	.st5{clip-path:url(#SVGID_6_);}
	.st6{clip-path:url(#SVGID_8_);fill:#FBD6E6;}
	.st7{fill:#010101;}
	.st8{clip-path:url(#SVGID_10_);fill:url(#SVGID_11_);}
	.st9{clip-path:url(#SVGID_13_);fill:url(#SVGID_14_);}
	.st10{fill:#EF3E42;}
	.st11{clip-path:url(#SVGID_16_);fill:url(#SVGID_17_);}
	.st12{clip-path:url(#SVGID_19_);fill:url(#SVGID_20_);}
	.st13{clip-path:url(#SVGID_22_);}
	.st14{clip-path:url(#SVGID_24_);fill:#FFCD00;}
	.st15{clip-path:url(#SVGID_28_);}
	.st16{clip-path:url(#SVGID_30_);fill:#FFCD00;}
	.st17{clip-path:url(#SVGID_34_);}
	.st18{clip-path:url(#SVGID_36_);fill:#010101;}
	.st19{opacity:0.71;}
</style>
<path class="st0" d="M145.26,182.93c-0.71,0-1.53,0.08-1.48-0.18C143.09,183.19,142.99,183.43,145.26,182.93"/>
<polygon class="st0" points="143.78,182.75 144.22,182.48 143.79,182.66 "/>
<path class="st0" d="M142.44,185.2l3.31-1.33l-0.54,0C144.49,184.54,143.23,184.65,142.44,185.2"/>
<path class="st0" d="M179.8,178.62c-2.01,0.6-0.13,0.93-0.64,1.55C180.21,178.38,181.75,179.8,179.8,178.62"/>
<path class="st0" d="M186.56,176.8c-1.19,0.07-1.82,0.42-2.45,0.74C185.78,178.01,185.72,177.21,186.56,176.8"/>
<path class="st0" d="M192.07,187.26c0.32-0.03,0.66-0.12,0.68,0.03C192.97,187.01,192.98,186.87,192.07,187.26"/>
<polygon class="st0" points="192.75,187.29 192.6,187.47 192.76,187.35 "/>
<path class="st0" d="M192.91,185.83l-1.23,0.92l0.24-0.02C192.12,186.31,192.66,186.17,192.91,185.83"/>
<path class="st0" d="M178.91,155.8c0.68,0.19,1.46,0.37,1.1-0.11l-1.11-0.87L178.91,155.8z"/>
<path class="st0" d="M177.27,153.34l-0.6-1.04c0.2,0.56,0.44,1.09,0.68,1.64c0.04-0.56,1.52-0.34,0.08-1.78
	C177.68,152.56,178.51,153.82,177.27,153.34"/>
<path class="st0" d="M175.42,151.39c0.42,0.18,0.12-0.46,0.24-0.67C175.25,150.55,174.67,150.72,175.42,151.39"/>
<path class="st0" d="M203.27,123.94c-0.95-0.27-0.93-0.12-0.67,0.12C202.61,123.91,202.96,123.95,203.27,123.94"/>
<polygon class="st0" points="202.6,124.11 202.77,124.21 202.6,124.06 "/>
<path class="st0" d="M181.57,121.24l0.22-0.09c-1.14-0.13-2.3-0.17-3.48-0.13C179.41,121.04,180.5,121.08,181.57,121.24"/>
<path class="st0" d="M203.35,123.38l0.24-0.01l-1.35-0.74C202.55,122.94,203.09,123,203.35,123.38"/>
<path class="st0" d="M217.68,127.58c0.07,0.41-0.8,0.35-0.09,0.95C218.68,128.15,217.71,128.72,217.68,127.58"/>
<path class="st0" d="M219.13,129.75c0.17,0.27,0.35,0.54,0.82,0.78C219.72,130.17,219.95,129.73,219.13,129.75"/>
<path class="st0" d="M274.12,144.1c0.49-0.19,0.69-0.44,0.89-0.69C274.2,143.31,274.39,143.77,274.12,144.1"/>
<polygon class="st0" points="66.49,143.17 66.82,142.83 66.48,143.08 "/>
<path class="st0" d="M102.94,130.44c-1.03,0.28-1.52,0.67-1.99,1.1C102.5,131.74,102.29,130.98,102.94,130.44"/>
<path class="st0" d="M38.44,126.2c-0.95-0.27-0.93-0.12-0.67,0.12C37.77,126.18,38.12,126.21,38.44,126.2"/>
<polygon class="st0" points="37.76,126.38 37.93,126.48 37.77,126.33 "/>
<path class="st0" d="M38.51,125.65l0.24-0.01l-1.35-0.74C37.71,125.21,38.26,125.27,38.51,125.65"/>
<path class="st0" d="M52.75,130.8c1.1-0.38,0.12,0.19,0.09-0.95C52.91,130.26,52.04,130.2,52.75,130.8"/>
<path class="st0" d="M93.94,133.74c0.16,0.44-0.24,0.43-0.42,0.71c-0.6-0.69-1.07-1.49-1.51-2.33c0.14,0.55,0.24,1.14,0.46,1.68
	c-0.35-0.26-0.61-0.86-0.87-1.4l0,0l1.07-0.86C93.07,132.24,93.5,132.94,93.94,133.74"/>
<path class="st1" d="M94.88,139.09c1.95-0.69,3.29-1.68,4.13-3.38c1.05-2.29,0.66-5.07-1.64-8.86c-4.69-7.72-3.39-10.13-0.29-14.45
	c-4.29,4.36-7.1,5.85-1.8,14.58C98.57,132.39,99.52,137.41,94.88,139.09"/>
<path class="st2" d="M94.88,142.12c-1.24,0-2.41-0.77-2.86-2.01c-0.57-1.58,0.25-3.31,1.82-3.88c0.89-0.32,1.02-0.69,1.08-0.85
	c0.34-0.96-0.07-3.26-2.23-6.82c-5.68-9.36-3.34-12.77,1.2-17.26l1.02-1.02c1.11-1.13,2.91-1.22,4.12-0.19
	c1.21,1.02,1.43,2.8,0.51,4.09c-2.63,3.67-3.43,4.77,0.42,11.11c2.74,4.52,3.33,8.34,1.8,11.69c-1.18,2.4-3.03,3.96-5.87,4.97
	C95.56,142.07,95.22,142.12,94.88,142.12z"/>
<path class="st1" d="M98.36,135.75c1.95-0.69,3.29-1.67,4.13-3.38c1.05-2.29,0.66-5.06-1.64-8.85c-4.69-7.73-3.39-10.13-0.29-14.45
	c-4.29,4.37-7.1,5.85-1.8,14.58C102.05,129.06,103,134.08,98.36,135.75"/>
<path class="st2" d="M98.36,138.79c-1.25,0-2.41-0.77-2.86-2.01c-0.56-1.58,0.25-3.31,1.83-3.88c0.88-0.32,1.01-0.69,1.07-0.85
	c0.34-0.96-0.07-3.26-2.23-6.82c-5.68-9.36-3.34-12.77,1.2-17.26l1.02-1.02c1.11-1.13,2.9-1.22,4.12-0.2
	c1.21,1.02,1.44,2.8,0.51,4.09c-2.63,3.67-3.42,4.78,0.42,11.11c2.74,4.52,3.33,8.34,1.8,11.69c-1.18,2.41-3.03,3.97-5.87,4.98
	C99.04,138.73,98.69,138.79,98.36,138.79z"/>
<g>
	<g>
		<g>
			<defs>
				<rect id="SVGID_1_" x="92.39" y="112.41" width="7.17" height="26.68"/>
			</defs>
			<clipPath id="SVGID_2_">
				<use xlink:href="#SVGID_1_"  style="overflow:visible;"/>
			</clipPath>
			<g class="st3">
				<defs>
					<rect id="SVGID_3_" x="92.39" y="112.4" width="7.17" height="26.68"/>
				</defs>
				<clipPath id="SVGID_4_">
					<use xlink:href="#SVGID_3_"  style="overflow:visible;"/>
				</clipPath>
				<path class="st4" d="M94.88,139.09c1.95-0.69,3.29-1.68,4.13-3.38c1.05-2.29,0.66-5.07-1.64-8.86
					c-4.69-7.72-3.39-10.13-0.29-14.45c-4.29,4.36-7.1,5.85-1.8,14.58C98.57,132.39,99.52,137.41,94.88,139.09"/>
			</g>
		</g>
	</g>
	<g>
		<g>
			<defs>
				<rect id="SVGID_5_" x="95.87" y="109.07" width="7.17" height="26.68"/>
			</defs>
			<clipPath id="SVGID_6_">
				<use xlink:href="#SVGID_5_"  style="overflow:visible;"/>
			</clipPath>
			<g class="st5">
				<defs>
					<rect id="SVGID_7_" x="95.87" y="109.07" width="7.17" height="26.68"/>
				</defs>
				<clipPath id="SVGID_8_">
					<use xlink:href="#SVGID_7_"  style="overflow:visible;"/>
				</clipPath>
				<path class="st6" d="M98.36,135.75c1.95-0.69,3.29-1.67,4.13-3.38c1.05-2.29,0.66-5.06-1.64-8.85
					c-4.69-7.73-3.39-10.13-0.29-14.45c-4.29,4.37-7.1,5.85-1.8,14.58C102.05,129.06,103,134.08,98.36,135.75"/>
			</g>
		</g>
	</g>
	<path class="st2" d="M57.74,120.53c4.57,0,8.83,0.49,13.04,1.49l1.5,0.36l-3.85,10.16l-1.26-0.45c-3.23-1.17-7.03-1.83-10.43-1.83
		c-7.24,0-13.35,3.47-13.35,7.56c0,4.09,6.25,7.42,13.93,7.42c3.65,0,7.03-0.68,10.97-2.22l1.42-0.56l2.71,10.28l-1.24,0.39
		c-3.4,1.07-9.11,1.79-14.2,1.79c-10.77,0-20.73-3.28-26-8.56c-2.58-2.58-3.94-5.55-3.94-8.58c0-3.14,1.37-6.17,3.96-8.76
		C36.31,123.7,46.31,120.53,57.74,120.53 M71.8,137.54c0-9.48,13.16-16.92,29.95-16.92c11.07,0,20.85,3.16,26.15,8.46
		c2.6,2.6,3.96,5.62,3.96,8.74c0,9.61-13.3,17.14-30.28,17.14C84.89,154.96,71.8,147.31,71.8,137.54 M101.58,145.32
		c7.8,0,13.68-3.15,13.68-7.33c0-1.43-0.59-2.75-1.76-3.93c-2.39-2.39-6.91-3.82-12.08-3.82c-7.58,0-13.51,3.16-13.52,7.2
		C87.91,141.94,93.78,145.32,101.58,145.32 M163.73,121.26h-25.72v13.11h-3.65v9.22h3.74v10.69h16.01v-10.74h5.86v-9.22
		c0,0-4.25,0-5.85,0v-3.74h13.86l-3.29-9.32H163.73z M199.08,121.26h-25.71v13.11h-3.65v9.22h3.74v10.69h16.02v-10.74
		c1.61,0,5.85,0,5.85,0v-9.22c0,0-4.25,0-5.85,0v-3.74h13.85l-3.28-9.32H199.08z M207.87,122.61v11.66h-3.57v9.32h3.65v10.69h29.31
		v-9.5c0,0-10.94,0-13.12,0v-1.24c1.73,0,6.76,0,6.76,0l0-9.27h-6.76v-3.65h13.81l-3.52-9.36h-26.57V122.61z M244.2,122.61v11.66
		h-3.57v9.32h3.65v10.69h29.31v-9.5c0,0-10.94,0-13.13,0v-1.24c1.74,0,6.76,0,6.76,0l0-9.27h-6.76v-3.65h13.82l-3.52-9.36H244.2
		V122.61z"/>
	<path class="st1" d="M103.39,152.71c-16.37,0-29.19-7.39-29.19-16.83c0-9.16,12.9-16.33,29.36-16.33c7.93,0,15.32,1.66,20.79,4.67
		c5.63,3.1,8.73,7.34,8.73,11.94C133.08,145.44,120.04,152.71,103.39,152.71 M103.23,128c-8.04,0-14.11,3.35-14.11,7.79
		c0,4.83,6.13,8.46,14.27,8.46c8.27,0,14.27-3.33,14.28-7.92C117.67,131.51,111.6,128,103.23,128 M58.8,152.66
		c-16.19,0-29.36-7.43-29.36-16.56c0-9.49,12.94-16.65,30.11-16.65c4.52,0,8.74,0.48,12.9,1.48l0.85,0.2l-3.41,8.98l-0.71-0.26
		c-3.29-1.19-7.15-1.87-10.6-1.87c-7.71,0-13.97,3.66-13.97,8.16c0,4.49,6.38,8,14.53,8c3.73,0,7.18-0.7,11.19-2.26l0.8-0.31
		l2.41,9.09l-0.7,0.22C69.48,151.95,63.85,152.66,58.8,152.66 M246.71,152.03v-10.69h-3.66v-8.14l3.57,0v-13.01h25.57l3.08,8.18
		H261.7l0,4.83h6.76l0,8.09h-6.77l0,2.42h13.14v8.32L246.71,152.03z M210.35,152.03v-10.7l-3.65,0v-8.14h3.57v-13.01l25.56,0
		l3.07,8.18h-13.55v4.83h6.75v8.09h-6.75v2.42l13.12,0v8.32H210.35z M175.85,152.03v-10.69h-3.74l0-8.04h3.66v-13.11h25.67
		l2.86,8.14h-13.6v4.93h5.84v8.04l-5.84,0v10.74H175.85z M140.5,152.03v-10.7l-3.74,0v-8.04l3.65,0v-13.11l25.67,0l2.87,8.14h-13.62
		l0,4.93h5.85v8.04h-5.85v10.74H140.5z"/>
	<g>
		<g>
			<g>
				<path class="st7" d="M59.56,118.87c4.56,0,8.82,0.49,13.03,1.49l1.5,0.36l-3.85,10.16l-1.26-0.45
					c-3.24-1.17-7.03-1.83-10.43-1.83c-7.24,0-13.35,3.46-13.35,7.57c0,4.09,6.25,7.42,13.93,7.42c3.65,0,7.04-0.68,10.97-2.22
					l1.42-0.56l2.72,10.28l-1.24,0.39c-3.41,1.07-9.11,1.79-14.2,1.79c-10.77,0-20.73-3.28-26.01-8.56
					c-2.58-2.58-3.94-5.54-3.94-8.58c0-3.14,1.37-6.17,3.96-8.76C38.13,122.04,48.12,118.87,59.56,118.87 M73.62,135.88
					c0-9.49,13.16-16.92,29.95-16.92c11.07,0,20.85,3.16,26.15,8.46c2.6,2.6,3.96,5.62,3.96,8.74c0,9.61-13.3,17.14-30.28,17.14
					C86.7,153.3,73.62,145.65,73.62,135.88 M103.4,143.66c7.8,0,13.69-3.15,13.69-7.33c0-1.44-0.6-2.75-1.76-3.93
					c-2.39-2.39-6.91-3.82-12.08-3.82c-7.58,0-13.51,3.16-13.52,7.2C89.72,140.28,95.6,143.66,103.4,143.66 M165.54,119.6h-25.72
					v13.11c-1.07,0-3.65,0-3.65,0v9.22h3.74v10.69h16.01v-10.74h5.85v-9.22c0,0-4.25,0-5.85,0v-3.75h13.86l-3.29-9.32H165.54z
					 M200.9,119.6h-25.71v13.11h-3.65v9.22h3.73v10.69h16.02v-10.74c1.61,0,5.85,0,5.85,0v-9.22c0,0-4.25,0-5.85,0v-3.75h13.86
					l-3.28-9.32H200.9z M209.68,120.95v11.66h-3.57v9.32h3.65v10.69h29.31v-9.5c0,0-10.93,0-13.12,0v-1.24c1.73,0,6.76,0,6.76,0
					l0-9.27h-6.76v-3.65h13.82l-3.52-9.36h-26.56V120.95z M246.02,120.95v11.66h-3.57v9.32h3.65v10.69h29.31v-9.5
					c0,0-10.94,0-13.13,0v-1.24c1.73,0,6.76,0,6.76,0v-9.27h-6.76v-3.65h13.81l-3.52-9.36h-26.57V120.95z"/>
			</g>
		</g>
	</g>
	<g>
		<g>
			<g>
				<path class="st7" d="M103.4,152.53c-16.27,0-29.02-7.31-29.02-16.65c0-9.06,12.82-16.16,29.18-16.16
					c10.87,0,20.45,3.08,25.61,8.24c2.45,2.45,3.74,5.28,3.74,8.2C132.91,145.34,119.95,152.53,103.4,152.53 M103.24,127.82
					c-8.14,0-14.28,3.43-14.28,7.97c0,4.92,6.21,8.64,14.45,8.64c8.37,0,14.45-3.4,14.45-8.09c0-1.64-0.67-3.14-1.99-4.47
					C113.33,129.34,108.61,127.82,103.24,127.82 M58.81,152.49c-10.56,0-20.32-3.19-25.46-8.33c-2.43-2.43-3.72-5.21-3.72-8.04
					c0-2.93,1.29-5.77,3.73-8.22c5.17-5.17,14.96-8.26,26.2-8.26c4.51,0,8.71,0.48,12.85,1.47l0.65,0.16l-3.27,8.63l-0.55-0.2
					c-3.31-1.19-7.21-1.88-10.69-1.88c-7.79,0-14.12,3.74-14.12,8.33c0,4.59,6.46,8.18,14.7,8.18c3.75,0,7.23-0.7,11.25-2.27
					l0.62-0.24l2.31,8.74l-0.54,0.17C69.45,151.78,63.83,152.49,58.81,152.49 M246.88,151.85v-10.69h-3.66v-7.78h3.57v-13.01h25.27
					l2.94,7.83h-13.47v5.19h6.76v7.73h-6.76v2.78h13.12v7.96H246.88z M210.53,151.85v-10.69h-3.65v-7.78h3.57v-13.01h25.26
					l2.94,7.83h-13.47v5.19h6.76l0,7.73h-6.76v2.78h13.12v7.96H210.53z M176.03,151.85v-10.69h-3.73v-7.69h3.65v-13.11h25.36
					l2.74,7.78h-13.54v5.28h5.85v7.68h-5.85v10.74H176.03z M140.68,151.85v-10.69h-3.74v-7.69l3.65,0v-13.11h25.36l2.75,7.78h-13.54
					v5.28h5.85v7.68h-5.85v10.74H140.68z"/>
			</g>
		</g>
	</g>
	<path class="st2" d="M92.91,166.54v7.27c4.1-0.67,6.43-2.07,6.43-3.94c0-1.9-2.71-3.33-6.29-3.33H92.91z M205.43,166.45v2.73h0.42
		c5.62,0,6.89-1.23,6.89-1.46v0c-0.05-0.21-1.35-1.27-6.22-1.27h-0.44H205.43z"/>
	<path class="st1" d="M165.27,188.9c-5.04,0-12.1-0.76-18.42-1.97l-1.43-0.37l3.79-8.41l0.61,0.13c5.6,1.21,12.75,2.17,16.29,2.17
		c2.42,0,4.06-0.92,4.06-1.78c0-0.73-0.24-1.05-5.01-2.39l-5.32-1.51c-6.33-1.78-9.01-2.94-11.03-4.77c-1.47-1.36-2.25-3-2.25-4.76
		c0-2.88,2-5.44,5.63-7.19c3.5-1.69,8.26-2.59,13.76-2.59c5.11,0,10.09,0.51,16.18,1.65l1.78,0.28l-5.56,7.92l-0.48-0.09
		c-4.68-0.84-9.03-1.31-12.25-1.31c-2.14,0-3.3,0.59-3.3,1.14c0,0.66,0.6,0.96,8.17,3.13c5.46,1.54,8.59,2.63,10.78,3.79
		c3.01,1.6,4.81,4.1,4.81,6.69c0,3.02-2.14,5.69-6.02,7.52C176.28,187.96,171.18,188.9,165.27,188.9 M94.12,176.99v11H79.45V156.2
		H94.1c14.06,0,22.79,4.53,22.79,11.82c0,3.52-2.18,6.26-6.67,8.34l8.64,10.2l-14.59,2.07L94.12,176.99z M94.12,172.84
		c3.17-0.44,7.61-1.59,7.61-4.64c0-2.23-2.96-3.92-6.88-3.92h-0.73V172.84z M58.69,188.63c-16.19,0-29.36-7.43-29.36-16.56
		c0-9.49,12.94-16.65,30.11-16.65c4.52,0,8.74,0.49,12.89,1.49l0.85,0.2l-3.4,8.98l-0.71-0.26c-3.28-1.19-7.15-1.87-10.62-1.87
		c-7.69,0-13.94,3.66-13.94,8.15c0,2.11,1.42,4.09,4.02,5.58c2.73,1.57,6.46,2.43,10.51,2.43c3.73,0,7.18-0.7,11.19-2.26l0.8-0.31
		l2.4,9.1l-0.7,0.22C69.36,187.92,63.72,188.62,58.69,188.63 M191.81,187.99l0-31.84h16.22c7.69,0,12.13,0.93,15.32,3.19
		c2.57,1.86,3.99,4.26,3.99,6.77c0,5.03-5.36,8.99-13.32,9.87c-1.87,0.19-3.91,0.28-6.07,0.28h-1.4l-0.01,11.74H191.81z
		 M207.7,168.12c5.17,0,7.48-1.03,7.48-2.05c0-0.9-2.13-1.87-6.82-1.87h-1.67v3.92H207.7z M123.91,156.15h14.67v31.84h-14.67V156.15
		z"/>
	<rect x="89.86" y="161.66" class="st1" width="14.87" height="14.11"/>
	<rect x="202.61" y="159.79" class="st1" width="14.87" height="14.11"/>
	<g>
		<g>
			<g>
				<path class="st7" d="M59.44,154.83c4.57,0,8.83,0.49,13.03,1.49l1.5,0.36l-3.84,10.16l-1.26-0.45
					c-3.23-1.17-7.03-1.84-10.43-1.84c-4.77,0-9.23,1.49-11.63,3.88c-0.79,0.79-1.72,2.07-1.72,3.68c0,1.24,0.55,2.42,1.63,3.51
					c2.41,2.42,7.12,3.91,12.3,3.91c3.65,0,7.04-0.69,10.97-2.22l1.42-0.56l2.71,10.28l-1.24,0.39c-3.41,1.07-9.12,1.79-14.2,1.79
					c-16.79,0-29.94-7.53-29.94-17.15c0-3.14,1.37-6.17,3.95-8.76C38.01,158,48.01,154.83,59.44,154.83 M93.36,155.61h0.75
					c14.42,0,23.38,4.75,23.38,12.41c0,3.53-2.13,6.39-6.32,8.53c1.71,2.02,8.83,10.44,8.83,10.44l-15.97,2.27
					c0,0-6.36-7.3-9.32-10.7v10.01H78.87v-32.97H93.36 M94.72,164.87v7.27c4.1-0.67,6.42-2.07,6.42-3.94c0-1.9-2.71-3.33-6.28-3.33
					H94.72z M137.82,155.56h-14.49v33.01h15.85v-33.01H137.82z M148.28,160.02c-1.51,1.51-2.31,3.32-2.31,5.21v0.01
					c0,1.93,0.85,3.72,2.44,5.18c2.1,1.91,4.84,3.1,11.27,4.91l5.32,1.5c1.37,0.39,4.24,1.19,4.57,1.64v0.02
					c0,0.05,0.01,0.17,0.01,0.17c0,0.35-1.18,1.19-3.46,1.19c-3.52,0-10.61-0.95-16.17-2.16l-1.08-0.23l-4.27,9.48l2.06,0.53
					c6.45,1.24,13.56,2,18.62,2c8.61,0,15.54-1.99,19-5.45c1.56-1.56,2.38-3.42,2.38-5.36v-0.01c0-2.81-1.91-5.5-5.12-7.21
					c-2.24-1.17-5.4-2.29-10.9-3.84c-3.65-1.05-7.09-2.05-7.74-2.53c0-0.01,0-0.03,0-0.03c0.07-0.07,0.77-0.55,2.72-0.55
					c3.18,0,7.49,0.46,12.14,1.29l0.86,0.16l6.32-9l-2.74-0.43c-6.08-1.14-11.11-1.66-16.25-1.66
					C157.98,154.87,151.55,156.75,148.28,160.02 M207.37,155.56h0.66c7.82,0,12.37,0.95,15.67,3.3c2.72,1.97,4.22,4.54,4.22,7.24
					c0,5.35-5.56,9.55-13.86,10.46c-1.89,0.18-3.95,0.28-6.12,0.28h-0.8c0,2.13,0,11.74,0,11.74h-15.93l0.01-33.01H207.37
					 M207.24,164.79v2.73h0.42c5.62,0,6.89-1.23,6.89-1.46v0c-0.05-0.21-1.35-1.27-6.22-1.27h-0.44H207.24z"/>
			</g>
		</g>
	</g>
	<g>
		<g>
			<g>
				<path class="st7" d="M165.27,188.72c-5.04,0-12.12-0.76-18.48-1.99l-1.13-0.29l3.64-8.09l0.47,0.1
					c5.61,1.22,12.78,2.17,16.33,2.17c2.33,0,4.23-0.88,4.23-1.96l-0.01-0.17l0-0.25l-0.15-0.23c-0.37-0.5-1.53-0.95-4.95-1.91
					l-5.34-1.51c-6.3-1.77-8.97-2.93-10.97-4.74c-1.42-1.31-2.18-2.91-2.18-4.62c0-1.69,0.72-3.31,2.09-4.68
					c3.13-3.13,9.37-4.92,17.12-4.92c5.08,0,10.04,0.51,16.11,1.64l1.54,0.24l-5.33,7.59l-0.38-0.07c-4.69-0.84-9.05-1.3-12.28-1.3
					c-1.84,0-2.9,0.42-3.26,0.77l-0.25,0.25l0.05,0.7l0.28,0.24c0.69,0.52,3.08,1.24,7.99,2.66c5.42,1.52,8.54,2.62,10.76,3.78
					c2.95,1.57,4.71,4,4.71,6.53c0,1.75-0.74,3.41-2.16,4.82C180.41,186.81,173.68,188.72,165.27,188.72 M58.69,188.45
					c-16.36,0-29.18-7.2-29.18-16.38c0-2.93,1.28-5.77,3.73-8.21c5.17-5.17,14.96-8.26,26.19-8.26c4.52,0,8.72,0.48,12.85,1.47
					l0.65,0.15l-3.27,8.64l-0.55-0.2c-3.29-1.2-7.19-1.88-10.69-1.88c-4.97,0-9.63,1.57-12.17,4.11c-0.89,0.89-1.95,2.34-1.95,4.22
					c0,1.45,0.62,2.82,1.86,4.05c2.55,2.55,7.47,4.14,12.84,4.14c3.75,0,7.22-0.7,11.25-2.27l0.62-0.24l2.31,8.74l-0.54,0.17
					C69.32,187.74,63.71,188.45,58.69,188.45 M93.95,176.51v11.3H79.64v-31.43h14.47c13.95,0,22.61,4.46,22.61,11.64
					c0,3.21-1.99,5.85-5.9,7.84l-0.86,0.44l8.56,10.12l-14.18,2.01L93.95,176.51z M93.95,173.05l0.89-0.15
					c6.15-1,7.07-3.37,7.07-4.7c0-2.38-2.97-4.1-7.05-4.1h-0.91V173.05z M191.98,187.81l0.01-31.48h16.04
					c7.66,0,12.07,0.92,15.23,3.16c2.51,1.82,3.9,4.17,3.9,6.62c0,4.93-5.29,8.83-13.17,9.69c-1.89,0.18-3.92,0.28-6.04,0.28h-1.57
					l0,11.74H191.98z M206.47,168.29h1.19c5.65,0,7.66-1.2,7.66-2.23v-0.1l-0.02-0.09c-0.22-0.85-2.17-1.85-6.97-1.85h-1.86V168.29z
					 M124.09,156.33h14.31v31.48h-14.31V156.33z"/>
			</g>
		</g>
	</g>
</g>
<g>
	<defs>
		<path id="SVGID_9_" d="M274.08,144.48h-13.14l0-3.96h6.76l0-6.56h-6.76l0-6.36h13.22l-2.5-6.65h-24.26v13.01l-3.58,0v6.6h3.66
			v10.69l26.6,0V144.48z M237.71,151.26v-6.78h-13.12v-3.96h6.76v-6.56h-6.76v-6.36h13.21l-2.5-6.65l-24.26,0v13.01h-3.57v6.6
			l3.65,0v10.7H237.71z M189.92,151.26v-10.74h5.84v-6.5h-5.84v-6.47h13.29l-2.32-6.6h-24.35v13.11h-3.66v6.5h3.74v10.69H189.92z
			 M154.56,151.26v-10.74h5.85v-6.5h-5.85l0-6.47h13.3l-2.33-6.6l-24.36,0v13.11l-3.65,0v6.5l3.74,0v10.7H154.56z M72.6,150.16
			l-2-7.55c-4.07,1.59-7.64,2.32-11.47,2.32c-8.64,0-15.29-3.82-15.29-8.77c0-4.96,6.57-8.92,14.71-8.92
			c3.49,0,7.48,0.68,10.88,1.91l2.83-7.46c-3.99-0.96-8.14-1.46-12.72-1.46c-16.71,0-29.34,6.87-29.34,15.88
			c0,8.73,12.8,15.79,28.59,15.79C63.62,151.89,69.27,151.22,72.6,150.16 M118.44,136.34c0,5.05-6.32,8.69-15.05,8.69
			c-8.64,0-15.04-3.91-15.04-9.23c0-4.87,6.31-8.56,14.88-8.56C112.04,127.24,118.44,131.06,118.44,136.34 M132.31,136.16
			c0.01-8.92-12.63-15.84-28.75-15.84c-15.79,0-28.59,6.91-28.59,15.56c0,8.92,12.63,16.06,28.42,16.06
			C119.51,151.94,132.31,144.98,132.31,136.16"/>
	</defs>
	<clipPath id="SVGID_10_">
		<use xlink:href="#SVGID_9_"  style="overflow:visible;"/>
	</clipPath>
	
		<linearGradient id="SVGID_11_" gradientUnits="userSpaceOnUse" x1="-229.6928" y1="772.7414" x2="-227.3795" y2="772.7414" gradientTransform="matrix(6.000000e-07 -13.7106 -13.7106 -6.000000e-07 10746.9121 -2997.4941)">
		<stop  offset="0" style="stop-color:#B1B4B5"/>
		<stop  offset="0.4888" style="stop-color:#F6F7F7"/>
		<stop  offset="0.882" style="stop-color:#FFFFFF"/>
		<stop  offset="1" style="stop-color:#FFFFFF"/>
	</linearGradient>
	<rect x="30.21" y="120.22" class="st8" width="243.94" height="31.72"/>
</g>
<g>
	<defs>
		<path id="SVGID_12_" d="M215.95,166.07c0,1.78-3.01,2.82-8.25,2.82h-0.33h-1.45v-5.46h2h0.44
			C213.17,163.42,215.95,164.42,215.95,166.07 M205.78,187.22l0.01-11.74h1.83h0.33c2.16,0,4.15-0.09,5.99-0.27
			c7.48-0.82,12.64-4.5,12.64-9.1c0-2.32-1.34-4.46-3.66-6.14c-3.08-2.18-7.39-3.05-14.88-3.05h-0.66h-14.79l0,30.31H205.78z
			 M137.81,156.92h-13.13v30.3h13.13V156.92z M102.5,168.2c0,2.91-3.24,4.86-9.14,5.5v-10.19h0.5h1
			C99.26,163.51,102.5,165.47,102.5,168.2 M117.37,185.99l-8.4-9.92c4.83-2,7.15-4.64,7.15-8.05c0-6.78-8.55-11.05-22.02-11.05
			h-0.75H80.22v30.25h13.13v-12.29l11.21,12.88L117.37,185.99z M72.48,186.13l-1.99-7.55c-4.08,1.59-7.65,2.31-11.47,2.31
			c-8.64,0-15.29-3.82-15.29-8.78c0-4.96,6.57-8.92,14.71-8.92c3.49,0,7.48,0.68,10.89,1.92l2.82-7.46
			c-3.99-0.96-8.14-1.47-12.71-1.47c-16.7,0-29.34,6.87-29.34,15.88c0,8.73,12.79,15.79,28.59,15.79
			C63.51,187.86,69.16,187.18,72.48,186.13 M185.29,178.67c0-2.32-1.66-4.55-4.4-6.01c-2.16-1.13-5.32-2.23-10.64-3.73
			c-8.23-2.37-8.73-2.6-8.73-3.87c0-1.18,1.58-1.91,4.07-1.91c3.16,0,7.56,0.45,12.38,1.32l4.57-6.5l-0.58-0.09
			c-6.07-1.14-11.05-1.64-16.04-1.64c-10.97,0-18.62,3.69-18.62,9.01c0,1.51,0.67,2.96,2,4.19c1.91,1.74,4.57,2.87,10.72,4.6
			l5.32,1.51c4.82,1.36,5.57,1.77,5.57,3.13c0,1.46-2.08,2.55-4.82,2.55c-3.65,0-10.81-0.96-16.45-2.18l-3.16,7.01l0.5,0.13
			c6.15,1.18,13.22,1.96,18.28,1.96C177.07,188.13,185.29,184.26,185.29,178.67"/>
	</defs>
	<clipPath id="SVGID_13_">
		<use xlink:href="#SVGID_12_"  style="overflow:visible;"/>
	</clipPath>
	
		<linearGradient id="SVGID_14_" gradientUnits="userSpaceOnUse" x1="-231.2543" y1="773.652" x2="-228.9409" y2="773.652" gradientTransform="matrix(6.000000e-07 -13.8095 -13.8095 -6.000000e-07 10812.0762 -3005.5903)">
		<stop  offset="0" style="stop-color:#B1B4B5"/>
		<stop  offset="0.4888" style="stop-color:#F6F7F7"/>
		<stop  offset="0.882" style="stop-color:#FFFFFF"/>
		<stop  offset="1" style="stop-color:#FFFFFF"/>
	</linearGradient>
	<rect x="30.1" y="156.19" class="st9" width="196.48" height="31.95"/>
</g>
<g>
	<g>
		<g>
			<g>
				<path class="st10" d="M103.39,152.71c-16.37,0-29.19-7.39-29.19-16.83c0-9.16,12.9-16.33,29.36-16.33
					c7.93,0,15.32,1.66,20.79,4.67c5.63,3.1,8.73,7.34,8.72,11.94C133.08,145.44,120.04,152.71,103.39,152.71 M103.23,128
					c-8.04,0-14.11,3.35-14.11,7.79c0,4.83,6.13,8.46,14.27,8.46c8.27,0,14.27-3.33,14.28-7.92C117.67,131.51,111.6,128,103.23,128
					 M58.8,152.66c-16.19,0-29.35-7.43-29.35-16.55c0-9.49,12.94-16.65,30.1-16.65c4.52,0,8.74,0.49,12.89,1.48l0.85,0.21
					l-3.41,8.98l-0.71-0.26c-3.29-1.19-7.15-1.87-10.6-1.87c-7.71,0-13.97,3.66-13.97,8.16c0,4.49,6.38,8.01,14.52,8.01
					c3.73,0,7.18-0.7,11.19-2.26l0.8-0.31l2.41,9.09l-0.7,0.22C69.48,151.95,63.85,152.66,58.8,152.66 M246.71,152.03v-10.69h-3.66
					v-8.14l3.58,0v-13.01h25.56l3.07,8.18H261.7v4.83h6.76l0,8.09h-6.77v2.42h13.14v8.32L246.71,152.03z M210.35,152.03v-10.7
					l-3.66,0v-8.14h3.57v-13.01h25.56l3.07,8.18h-13.55v4.83h6.75v8.09h-6.75v2.42l13.12,0v8.32H210.35z M175.86,152.03v-10.69
					h-3.74l0-8.04h3.66v-13.11h25.66l2.86,8.13h-13.61v4.93l5.85,0v8.04l-5.85,0v10.74H175.86z M140.5,152.03v-10.7l-3.74,0v-8.04
					h3.65v-13.11h25.67l2.87,8.13h-13.61l0,4.93l5.85,0v8.04h-5.85v10.74H140.5z"/>
			</g>
		</g>
	</g>
	<g>
		<g>
			<g>
				<path class="st10" d="M165.27,188.9c-5.04,0-12.1-0.76-18.42-1.98l-1.43-0.37l3.79-8.4l0.61,0.13
					c5.6,1.21,12.75,2.17,16.29,2.17c2.43,0,4.06-0.92,4.06-1.78c0-0.73-0.24-1.05-5.01-2.39l-5.32-1.51
					c-6.33-1.78-9.01-2.94-11.03-4.77c-1.47-1.36-2.25-3-2.25-4.76c0-2.88,2-5.43,5.63-7.19c3.5-1.69,8.26-2.58,13.76-2.58
					c5.11,0,10.09,0.51,16.18,1.65l1.78,0.28l-5.56,7.92l-0.48-0.09c-4.68-0.84-9.03-1.31-12.25-1.31c-2.15,0-3.31,0.59-3.31,1.14
					c0,0.67,0.61,0.96,8.17,3.13c5.46,1.54,8.58,2.63,10.78,3.79c3.01,1.6,4.81,4.1,4.81,6.69c0,3.02-2.14,5.69-6.02,7.52
					C176.28,187.96,171.18,188.9,165.27,188.9 M94.12,176.98v11.01H79.46V156.2H94.1c14.06,0,22.79,4.53,22.79,11.82
					c0,3.52-2.19,6.26-6.67,8.34l8.64,10.2l-14.59,2.07L94.12,176.98z M94.12,172.84c3.17-0.43,7.61-1.59,7.61-4.64
					c0-2.24-2.96-3.92-6.88-3.92h-0.73V172.84z M58.69,188.62c-16.19,0-29.36-7.43-29.36-16.55c0-9.49,12.94-16.65,30.11-16.65
					c4.52,0,8.74,0.48,12.89,1.49l0.85,0.2l-3.4,8.98l-0.71-0.26c-3.28-1.19-7.15-1.87-10.62-1.87c-7.69,0-13.95,3.66-13.95,8.15
					c0,2.11,1.43,4.09,4.02,5.58c2.73,1.57,6.46,2.43,10.51,2.43c3.73,0,7.18-0.7,11.19-2.26l0.8-0.31l2.4,9.09l-0.7,0.22
					C69.36,187.92,63.72,188.62,58.69,188.62 M191.81,187.99l0-31.84h16.22c7.69,0,12.13,0.93,15.32,3.19
					c2.57,1.86,3.99,4.26,3.99,6.76c0,5.02-5.36,8.99-13.32,9.86c-1.87,0.19-3.91,0.28-6.07,0.28h-1.4l-0.01,11.74H191.81z
					 M207.7,168.12c5.17,0,7.48-1.03,7.48-2.05c0-0.9-2.13-1.87-6.82-1.87h-1.67v3.92H207.7z M123.91,156.15h14.66v31.84h-14.66
					V156.15z"/>
			</g>
		</g>
	</g>
	<path class="st2" d="M93.66,138.88c10.05,3.79,21.31-2.22,13.86-6.3C123.46,136.5,104.15,147.12,93.66,138.88"/>
	<path class="st1" d="M98.36,135.75c1.95-0.69,3.29-1.67,4.13-3.38c1.05-2.29,0.66-5.06-1.64-8.85c-4.69-7.73-3.39-10.13-0.29-14.45
		c-4.29,4.37-7.1,5.85-1.8,14.58C102.05,129.06,103,134.08,98.36,135.75"/>
	<path class="st1" d="M98.36,137.61c-0.76,0-1.47-0.47-1.74-1.23c-0.34-0.96,0.15-2.02,1.12-2.37c1.26-0.46,1.62-1.11,1.78-1.57
		c0.57-1.6-0.29-4.46-2.33-7.83c-5.35-8.81-3.21-11.61,1.03-15.81l1.04-1.04c0.68-0.69,1.77-0.74,2.51-0.12
		c0.74,0.62,0.88,1.71,0.31,2.5c-2.74,3.83-3.88,5.41,0.37,12.41c2.52,4.16,3.09,7.62,1.74,10.58c-1.02,2.08-2.66,3.45-5.19,4.35
		c0,0-0.01,0-0.01,0C98.77,137.57,98.56,137.61,98.36,137.61z"/>
	<path class="st1" d="M94.88,139.09c1.95-0.69,3.29-1.68,4.13-3.38c1.05-2.29,0.66-5.07-1.64-8.86c-4.69-7.72-3.39-10.13-0.29-14.45
		c-4.29,4.36-7.1,5.85-1.8,14.58C98.57,132.39,99.52,137.41,94.88,139.09"/>
	<path class="st1" d="M94.88,140.94c-0.76,0-1.47-0.47-1.74-1.23c-0.35-0.96,0.15-2.02,1.11-2.37c1.27-0.46,1.63-1.12,1.79-1.57
		c0.57-1.61-0.29-4.46-2.34-7.83c-5.35-8.81-3.21-11.61,1.03-15.81l1.04-1.03c0.68-0.69,1.77-0.74,2.52-0.12
		c0.74,0.62,0.88,1.71,0.31,2.5c-2.75,3.82-3.88,5.41,0.37,12.41c2.53,4.16,3.09,7.62,1.74,10.59c-1.02,2.08-2.66,3.45-5.18,4.35
		l0,0c0,0,0,0-0.01,0C95.3,140.91,95.09,140.94,94.88,140.94z"/>
</g>
<g>
	<defs>
		<path id="SVGID_15_" d="M99.01,135.71c1.05-2.29,0.66-5.07-1.64-8.86c-4.69-7.72-3.39-10.13-0.29-14.45
			c-4.29,4.36-7.1,5.85-1.8,14.58c3.29,5.41,4.24,10.42-0.4,12.1C96.83,138.39,98.18,137.41,99.01,135.71"/>
	</defs>
	<clipPath id="SVGID_16_">
		<use xlink:href="#SVGID_15_"  style="overflow:visible;"/>
	</clipPath>
	
		<linearGradient id="SVGID_17_" gradientUnits="userSpaceOnUse" x1="-227.1263" y1="777.4283" x2="-224.8131" y2="777.4283" gradientTransform="matrix(-5.000000e-07 -11.5346 -11.5346 5.000000e-07 9062.3457 -2480.7249)">
		<stop  offset="0" style="stop-color:#E5E6E6"/>
		<stop  offset="0.2616" style="stop-color:#EFEFEE"/>
		<stop  offset="0.5" style="stop-color:#FFFFFF"/>
		<stop  offset="1" style="stop-color:#FFFFFF"/>
	</linearGradient>
	<rect x="89.98" y="112.41" class="st11" width="10.07" height="26.68"/>
</g>
<g>
	<defs>
		<path id="SVGID_18_" d="M102.49,132.37c1.05-2.28,0.66-5.06-1.64-8.85c-4.69-7.73-3.39-10.13-0.29-14.46
			c-4.29,4.37-7.1,5.85-1.8,14.58c3.29,5.41,4.24,10.43-0.4,12.1C100.3,135.06,101.65,134.08,102.49,132.37"/>
	</defs>
	<clipPath id="SVGID_19_">
		<use xlink:href="#SVGID_18_"  style="overflow:visible;"/>
	</clipPath>
	
		<linearGradient id="SVGID_20_" gradientUnits="userSpaceOnUse" x1="-226.9617" y1="777.2578" x2="-224.6483" y2="777.2578" gradientTransform="matrix(-5.000000e-07 -11.534 -11.534 5.000000e-07 9063.4004 -2482.0247)">
		<stop  offset="0" style="stop-color:#E5E6E6"/>
		<stop  offset="0.2616" style="stop-color:#EFEFEE"/>
		<stop  offset="0.5" style="stop-color:#FFFFFF"/>
		<stop  offset="1" style="stop-color:#FFFFFF"/>
	</linearGradient>
	<rect x="93.46" y="109.07" class="st12" width="10.07" height="26.68"/>
</g>
<g>
	<g>
		<g>
			<defs>
				<rect id="SVGID_21_" x="92.39" y="112.41" width="7.17" height="26.68"/>
			</defs>
			<clipPath id="SVGID_22_">
				<use xlink:href="#SVGID_21_"  style="overflow:visible;"/>
			</clipPath>
			<g class="st13">
				<defs>
					<rect id="SVGID_23_" x="92.39" y="112.4" width="7.17" height="26.68"/>
				</defs>
				<clipPath id="SVGID_24_">
					<use xlink:href="#SVGID_23_"  style="overflow:visible;"/>
				</clipPath>
				<path class="st14" d="M94.88,139.09c1.95-0.69,3.29-1.68,4.13-3.38c1.05-2.29,0.66-5.07-1.64-8.86
					c-4.69-7.72-3.39-10.13-0.29-14.45c-4.29,4.36-7.1,5.85-1.8,14.58C98.57,132.39,99.52,137.41,94.88,139.09"/>
			</g>
		</g>
	</g>
	<g>
		<g>
			<defs>
				<rect id="SVGID_25_" x="92.39" y="112.41" width="7.17" height="26.68"/>
			</defs>
			<clipPath id="SVGID_26_">
				<use xlink:href="#SVGID_25_"  style="overflow:visible;"/>
			</clipPath>
		</g>
	</g>
	<g>
		<g>
			<defs>
				<rect id="SVGID_27_" x="95.87" y="109.07" width="7.17" height="26.68"/>
			</defs>
			<clipPath id="SVGID_28_">
				<use xlink:href="#SVGID_27_"  style="overflow:visible;"/>
			</clipPath>
			<g class="st15">
				<defs>
					<rect id="SVGID_29_" x="95.87" y="109.07" width="7.17" height="26.68"/>
				</defs>
				<clipPath id="SVGID_30_">
					<use xlink:href="#SVGID_29_"  style="overflow:visible;"/>
				</clipPath>
				<path class="st16" d="M98.36,135.75c1.95-0.69,3.29-1.67,4.13-3.38c1.05-2.29,0.66-5.06-1.64-8.85
					c-4.69-7.73-3.39-10.13-0.29-14.45c-4.29,4.37-7.1,5.85-1.8,14.58C102.05,129.06,103,134.08,98.36,135.75"/>
			</g>
		</g>
	</g>
	<g>
		<g>
			<defs>
				<rect id="SVGID_31_" x="95.87" y="109.07" width="7.17" height="26.68"/>
			</defs>
			<clipPath id="SVGID_32_">
				<use xlink:href="#SVGID_31_"  style="overflow:visible;"/>
			</clipPath>
		</g>
	</g>
	<g>
		<g>
			<defs>
				<rect id="SVGID_33_" x="212.15" y="184.08" width="4.35" height="4.32"/>
			</defs>
			<clipPath id="SVGID_34_">
				<use xlink:href="#SVGID_33_"  style="overflow:visible;"/>
			</clipPath>
			<g class="st17">
				<defs>
					<rect id="SVGID_35_" x="212.15" y="184.08" width="4.35" height="4.33"/>
				</defs>
				<clipPath id="SVGID_36_">
					<use xlink:href="#SVGID_35_"  style="overflow:visible;"/>
				</clipPath>
				<path class="st18" d="M214.32,188.41c-1.15,0-2.17-0.8-2.17-2.16c0-1.36,1.03-2.16,2.17-2.16c1.15,0,2.17,0.8,2.17,2.16
					C216.49,187.61,215.47,188.41,214.32,188.41 M214.32,184.58c-0.86,0-1.55,0.67-1.55,1.66c0,1,0.69,1.67,1.55,1.66v0.01
					c0.84,0,1.55-0.67,1.55-1.67C215.87,185.25,215.16,184.58,214.32,184.58 M213.97,187.41h-0.5v-2.33h0.87
					c0.6,0,0.96,0.17,0.96,0.7c0,0.43-0.25,0.58-0.56,0.61l0.6,1.02h-0.59l-0.54-0.98h-0.23V187.41z M214.4,186.03
					c0.22,0,0.35-0.05,0.35-0.3c0-0.24-0.25-0.26-0.44-0.26h-0.35v0.56H214.4z"/>
			</g>
		</g>
	</g>
</g>
<g>
	<g class="st19">
		<g>
			<g>
				<path class="st1" d="M104.9,113.5c-0.15,0.27-0.28,0.23,0.05,0.02l-0.46,0.59l-0.51,0.88c-0.94,1.34-2.11,3.03-2.51,3.59
					c0.3-0.43,0.26-0.33,0.28-0.33c-0.39,0.62-1.02,1.54-1.24,1.66c-0.98,1.33,0.01,0.22-1,1.52l0.76-0.98l-0.1-0.03
					c0.93-1.24,0.72-0.56,1.69-2.03l0.62-1.06c0.38-0.51,0.56-0.66,0.95-1.27c-0.08,0.08-0.28,0.33-0.26,0.23l0.44-0.59
					c-0.25,0.24,0.71-0.93-0.15,0.06l0.48-0.58c0.72-1.13,0.98-1.36,1.57-2.22l0.42-0.8"/>
				<polygon class="st1" points="104,114.06 104.34,113.54 104.35,113.44 				"/>
				<path class="st1" d="M104.85,112.57c0.23-0.34,0-0.1,0.31-0.53l-0.63,0.94L104.85,112.57z"/>
				<path class="st1" d="M102.34,116.65c-0.13,0.17-0.31,0.42-0.16,0.15c0.09-0.12,0.15-0.2,0.31-0.42
					c-0.61,0.85,0.1-0.28,0.24-0.55c0.1-0.07-0.96,1.46-1.36,1.96c-0.46,0.58,0.49-0.99-0.21,0.03c-0.36,0.72,0.18-0.15,0.07,0.24
					c-0.22,0.28-0.5,0.62-0.66,0.82l0.35-0.4c-0.44,0.68-0.32,0.52-0.95,1.34c0.16-0.15,0.54-0.64,0.57-0.63
					c-0.24,0.33-0.58,0.73-0.81,0.96c-0.09,0.28-0.38,0.49-0.03,0.2l-0.45,0.57c0.93-1.23,0.45-0.35,1.4-1.69l-0.29,0.31
					c0.01-0.1,0.49-0.65,0.76-1.09l0.29-0.32c0.25-0.34-0.09,0.07,0.18-0.36l0.61-0.85C102.08,117.08,102.28,116.74,102.34,116.65"
					/>
				<path class="st1" d="M99.71,120.76l0.22-0.23c-0.82,0.85-0.96,1.33-1.61,1.92c0.56-0.74-0.01-0.11,0.39-0.7
					c-0.18,0.25-0.36,0.39-0.63,0.82c0.21-0.13-0.41,0.69,0.11,0.15l0.51-0.65c-0.33,0.51,0.37-0.28,0.82-0.85
					C99.58,121.03,99.34,121.26,99.71,120.76"/>
				<path class="st1" d="M101.81,117l-0.26,0.33l0.25-0.23C101.95,116.84,101.99,116.75,101.81,117"/>
				<polygon class="st1" points="98.56,121.71 98.56,121.81 98.81,121.38 				"/>
				<polygon class="st1" points="96.82,124.21 97.14,123.81 97.31,123.56 				"/>
				<path class="st1" d="M95.48,125.7l0.25-0.33c0,0-0.19,0.22-0.39,0.43c-0.21,0.2-0.42,0.4-0.42,0.4
					c-0.04,0.09-0.24,0.32-0.51,0.63c-0.09,0.07,0.16-0.36-0.36,0.27c-0.42,0.35,0.67-0.77,0.25-0.42c-0.85,0.9-1,1.16-1.47,1.7
					c0.82-0.71,1.36-1.11,2.54-2.31c-0.08,0.07-0.23,0.22-0.25,0.22c0.04,0.03,1.52-1.84,1.52-1.84
					C96.28,124.85,95.72,125.49,95.48,125.7"/>
				<path class="st1" d="M99.1,120.65l-0.52,0.65c0.07-0.08,0.09-0.08,0.03,0.01l-0.75,0.98l0.8-0.96
					C99.02,120.83,98.39,121.53,99.1,120.65"/>
				<path class="st1" d="M95.22,125.81c0.42-0.47,0.64-0.7,0.99-1.2l0.21-0.13C96.66,124.04,95.66,125.35,95.22,125.81"/>
				<path class="st1" d="M107.28,104.71c-0.08,0.09-0.26,0.44-0.32,0.53c0.35-0.53-0.33,0.73,0.21-0.25
					C107.26,104.81,107.3,104.72,107.28,104.71"/>
				<path class="st1" d="M88.99,133.79l0.17-0.25c-0.16,0.18-0.3,0.33-0.55,0.6c0.1-0.06,0.82-0.68,1.05-1L88.99,133.79z"/>
				<path class="st1" d="M106.09,106.36l0.46-0.8c-0.97,1.79-1.04,1.47-1.97,3.17l-0.11,0.38c-0.24,0.45-0.28,0.44-0.44,0.7
					c-0.18,0.56,0.56-0.98,0.55-0.78l0.21-0.45c0.57-0.57,1.01-1.88,1.6-2.66C106.27,106.1,106.02,106.55,106.09,106.36"/>
				<path class="st1" d="M92.65,129.07c-0.19,0.13-0.49,0.53-0.77,0.84l0.2-0.12C92.34,129.46,92.39,129.4,92.65,129.07"/>
				<path class="st1" d="M87.81,134.84c0.41-0.34,0.61-0.57,0.96-0.94L87.81,134.84z"/>
				<path class="st1" d="M96.96,122.67c0.11-0.17-0.61,0.82-0.43,0.47c-0.63,0.81,0.28-0.1-0.64,1.02c0.21-0.23,0.83-1.05,0.5-0.54
					C96.28,123.67,96.87,122.85,96.96,122.67"/>
				<path class="st1" d="M91.74,129.85l0.76-0.84c-0.41,0.46-0.87,0.9-1.33,1.45c0.31-0.18,0.4-0.47,0.94-0.87
					C91.68,130.04,91.91,129.71,91.74,129.85"/>
				<path class="st1" d="M86.42,136.11c-1.14,1.06-2.47,2.5-3.7,3.48l0.02,0.01c-0.97,0.79-2.05,1.63-2.35,1.78
					c0.4-0.33,0.06,0.04-0.15,0.25c-0.33,0.26-1.28,1.06-1.71,1.36c-0.19-0.01,2.03-1.63,1.95-1.8c-0.27,0.21-1.09,0.85-1.57,1.22
					l0.63-0.41c-0.54,0.47-1.31,1.03-1.37,0.99l-0.1,0.17c-0.85,0.75-1.28,0.93-1.81,1.41c0.53-0.48,0.43-0.31,0.61-0.43l-0.62,0.54
					c-0.11,0.05-0.51,0.24-0.93,0.54c-0.49,0.37,0.25-0.06-0.13,0.27l-0.68,0.48c-0.16,0.13,1.02-0.72,0.85-0.48l0-0.12
					c0.49-0.25,0.72-0.56,1.12-0.77l0.57-0.57c0.29-0.16-0.37,0.47-0.23,0.45c0.49-0.39,1.18-1,1.3-1.05
					c0.56-0.46-0.51,0.38-0.06-0.04c1.45-1.18,1.56-0.99,3.01-2.29l-0.02-0.01c1.45-1.31,1.45-0.94,2.87-2.41
					c-0.09,0.06-0.19,0.12,0.02-0.1c0.66-0.54,1.44-1.36,2.41-2.29L86.42,136.11z"/>
				<path class="st1" d="M91.3,129.64l-0.24,0.32l1.25-1.26C92.09,128.92,92.27,128.46,91.3,129.64"/>
				<path class="st1" d="M87.18,134.84c-0.76,0.82-1.13,1.07-1.86,1.79c-0.05,0.08,0.46-0.31,1.12-0.96l-0.25,0.31
					c0.77-0.81,0.72-0.62,1.27-1.22L87.18,134.84z"/>
				<path class="st1" d="M84.88,137.41c0.35-0.37,0.91-0.86,1.09-0.98l0-0.11L84.88,137.41z"/>
				<path class="st1" d="M101.44,114.2l-0.2,0.25c-0.03,0.09,0.1-0.07,0,0.1c-0.37,0.6-0.43,0.58-0.63,0.82
					c0.29-0.42,0.37-0.6,0.64-1.02c-1.23,1.86-0.92,1.24-1.99,2.84l0.28-0.32c-0.53,0.96-0.28,0.33-0.95,1.21
					c-0.12,0.16,0.39-0.38-0.09,0.27c-0.53,0.73-0.17,0.14-0.49,0.54l0.1-0.06c-0.11,0.17-0.2,0.24-0.27,0.31l0.09,0.03
					c-0.75,0.97-1.14,1.54-1.77,2.23c-0.25,0.43,0.72-0.87,0.22-0.12c-0.23,0.22-0.96,1.08-1.01,1.28l0.01,0.01l0.51-0.75
					c0.1-0.06,0.01,0.11-0.15,0.36c0.47-0.76,1.02-1.17,1.26-1.7c0.09-0.07,0.07,0.03,0.34-0.29l0.18-0.34
					c0.22-0.3,0.79-1.04,1.1-1.45c-0.09,0.17-0.87,1.23-0.22,0.44c0.37-0.48,0.18-0.35,0.62-0.91l0.12-0.06
					c0.66-0.8,0.5-0.96,1.03-1.51C100.82,115.33,101.47,114.32,101.44,114.2"/>
				<path class="st1" d="M88.17,133.7c-0.3,0.29-0.48,0.42-0.64,0.55l0.53-0.38C88.06,133.86,87.96,133.92,88.17,133.7"/>
				<path class="st1" d="M90.26,131l-1.17,1.3c-0.07,0.19,0.64-0.68,0.95-0.97C89.94,131.39,90.22,131.09,90.26,131"/>
				<polygon class="st1" points="87.73,134.02 88.05,133.74 88.16,133.58 				"/>
				<path class="st1" d="M84.45,137.85l-0.71,0.62L84.45,137.85z"/>
				<path class="st1" d="M88.24,132.96l-1.67,1.55c0.08-0.07-0.22,0.33,0.47-0.3l-0.34,0.26c0.45-0.42,0.78-0.8,1.36-1.27
					c-0.02,0.1,0.6-0.35-0.07,0.3l1.06-0.99C88.14,133.34,88.3,132.99,88.24,132.96"/>
				<path class="st1" d="M104.03,108.69c0,0.1,0.42-0.7,0.45-0.7C104.35,108.07,104.38,108.08,104.03,108.69"/>
				<path class="st1" d="M89.85,131.35c-0.47,0.54-0.08-0.04-0.59,0.59C89.4,131.79,89.7,131.6,89.85,131.35"/>
				<path class="st1" d="M84.26,137.62c-1.14,1.18-0.32,0.16-1.46,1.21c1.11-0.95-0.45,0.54,0.08,0.16c0.77-0.69,0.42-0.44,0.7-0.74
					l0.14-0.03c0.53-0.5,0.84-0.89,1.17-1.16C84.73,137.21,84.3,137.65,84.26,137.62"/>
				<path class="st1" d="M87.06,134.32c-0.34,0.37-1.25,1.22-1.05,1.1c-1.08,0.98-0.4,0.23-1.34,1.06l0.24-0.09l-0.87,0.87
					c0.62-0.56,0.05,0.03-0.15,0.25c0.96-0.81,2.07-2.12,3.01-2.83C88.03,133.62,87.4,134.06,87.06,134.32"/>
				<path class="st1" d="M97.64,119.89c-0.13,0.26-0.39,0.47-0.69,0.88l0.65-0.69C97.6,119.98,98.25,119.19,97.64,119.89"/>
				<path class="st1" d="M87.61,133.73c-0.09,0.06-0.24,0.2-0.54,0.49C87.3,134.01,87.38,134.05,87.61,133.73"/>
				<path class="st1" d="M81.67,140.21c-0.28,0.17-0.49,0.39-0.7,0.6c0.7-0.6,0.28-0.18,0.69-0.5
					C81.63,140.3,81.37,140.49,81.67,140.21"/>
				<path class="st1" d="M81.84,139.74c0.03,0.02-0.9,0.83-0.61,0.66c0.3-0.28,0.94-0.8,1.05-0.85
					C81.87,139.76,82.69,139.11,81.84,139.74"/>
				<path class="st1" d="M81.85,139.63l-0.07,0.07l0.77-0.57C82.82,138.84,82.11,139.45,81.85,139.63"/>
				<polygon class="st1" points="87.84,132.97 88.51,132.32 87.9,132.89 				"/>
				<polygon class="st1" points="84.84,136.24 85.03,136.12 85.26,135.8 				"/>
				<path class="st1" d="M98.3,117.87c0.08-0.07-0.11,0.27-0.19,0.45c0.11-0.17,0.41-0.57,0.44-0.56
					C98.08,118.3,99.14,116.85,98.3,117.87"/>
				<path class="st1" d="M82.84,138.4c0.1-0.06-0.09,0.18,0.28-0.18C82.89,138.42,82.86,138.41,82.84,138.4"/>
				<polygon class="st1" points="73.63,146.82 74.3,146.33 74.03,146.5 				"/>
				<path class="st1" d="M78.22,142.32l-0.43,0.43c-0.03-0.02-0.51,0.25-0.74,0.45l0.3-0.15c-0.38,0.34-0.8,0.65-0.76,0.56
					l-0.41,0.44l-0.43,0.3l0.15-0.02c0.75-0.69,1.53-1.23,1.96-1.54c-0.19,0.11-0.04-0.03,0.17-0.24l0.28-0.18
					C78.27,142.35,78.64,142.01,78.22,142.32"/>
				<polygon class="st1" points="74.68,145.63 75.5,145.02 74.88,145.41 				"/>
				<polygon class="st1" points="97.21,118.49 97.73,117.87 97.58,118.02 				"/>
				<path class="st1" d="M92.94,124.92c-0.62,0.78-1.32,1.42-1.99,2.17c0.1-0.28,1.11-1.19,1.13-1.39c-0.71,0.74-1.52,1.75-2.16,2.3
					c-0.18,0.24,0.72-0.73,0.32-0.17c-0.59,0.47-1.38,1.6-1.71,1.76c0.42-0.44-0.24,0.32,0.22-0.11c-0.72,0.72-0.8,1.03-1.55,1.72
					c0.05-0.19-1.25,1.08-1.82,1.54c-0.23,0.43-1.94,1.8-2.72,2.69c2.04-1.96,2.86-2.5,4.81-4.41l-0.43,0.53
					c0.77-0.78,1.11-0.85,2.01-2.03c0.63-0.78,1.72-1.98,2.1-2.34l0.15-0.25c0.73-0.72,1-1.14,1.41-1.69l0.26-0.2
					C93.34,124.57,92.84,125.09,92.94,124.92"/>
				<path class="st1" d="M99.95,113.73c-0.34,0.5-0.35,0.49-0.35,0.6C99.95,113.83,100.04,113.66,99.95,113.73"/>
				<path class="st1" d="M102.63,108.63c-0.04,0.2-0.76,1.18-1.06,1.69c-0.14,0.15-0.2,0.14-0.56,0.73
					c0.04-0.19,0.15-0.35-0.25,0.13c-0.09,0.17-0.01,0.09,0,0.1c-0.79,1.16-0.63,0.8-0.97,1.2c0.09-0.18,0.71-1.08,0.37-0.69
					c0.47-0.75,0.56-0.62,0.79-1.05c0.11-0.36,1.55-2.31,1.82-3.16c-0.13,0.16-0.07-0.02-0.14,0.06c-0.29,0.52-0.27,0.63-0.33,0.81
					c-1.07,1.6-1.48,2.21-2.33,3.48l0.1,0.03c-0.41,0.57-0.87,1.13-0.77,0.86c0.19-0.34,0.53-0.83,0.68-0.99
					c-0.12,0.16-0.12-0.03-0.56,0.62c-0.09,0.17-0.19,0.34-0.41,0.67l-0.05-0.02c-0.52,0.73-0.2,0.44-0.64,1.1l0.27-0.31
					c-0.17,0.25-0.38,0.58-0.46,0.65l0.05,0.02c-0.27,0.42-0.66,0.89-0.74,1.07c0.34-0.19,1.18-1.83,1.64-2.29
					c0.01,0,0.14-0.16,0.05,0.02c-0.2,0.34-0.52,0.74-0.49,0.65c-0.01,0.1-0.01,0.2-0.36,0.69l-0.02-0.1
					c-0.09,0.17-0.52,0.84-0.63,0.9l0.03,0.01c-0.67,0.99-0.21,0.14-0.75,0.85c0.19-0.23,0.22-0.22,0.24-0.22l-0.92,1.18l-0.06,0.18
					c0.37-0.57,0.95-1.06,1.28-1.55l-0.19,0.34c0,0,0.43-0.77,0.43-0.77c0.01,0.31,1.13-1.75,1.58-2.21l-0.1,0.07
					c1.16-1.54,0.64-0.7,1.58-1.91c-0.31,0.5-0.1,0.37-0.03,0.28c-0.15,0.16-0.13,0.06,0.09-0.27c0.76-0.88,1.24-2.01,1.86-2.84
					C102.81,108.38,102.94,108.11,102.63,108.63"/>
				<path class="st1" d="M98.41,116.48c-0.17,0.25-0.34,0.49-0.43,0.56l0.21-0.13L98.41,116.48z"/>
				<path class="st1" d="M89.81,129.03l-0.22,0.21c0.03,0.02-0.36,0.48,0.07,0.04C89.51,129.42,89.76,129.11,89.81,129.03"/>
				<path class="st1" d="M97.26,118l-0.29,0.41l0.58-0.71C97.59,117.62,97.34,117.93,97.26,118"/>
				<path class="st1" d="M102.29,108.94c0.41-0.49-0.08,0.08,0.43-0.68L102.29,108.94z"/>
				<path class="st1" d="M68.69,150.39l-0.55,0.43c0.74-0.41,0.23-0.18,0.95-0.62C69.16,150.14,68.8,150.36,68.69,150.39"/>
				<path class="st1" d="M100.92,111.62c-0.47,0.76-0.86,1.14-0.93,1.12c0.24-0.23,0.17,0.05,0.8-0.86L100.92,111.62z"/>
				<path class="st1" d="M98.05,116.56c-0.18,0.34-0.27,0.41,0.08,0.03l-1.02,1.36l0.38-0.37
					C97.39,117.66,99.16,115.21,98.05,116.56"/>
				<path class="st1" d="M69.66,149.52c0,0-0.29,0.27,0.22-0.08L69.66,149.52z"/>
				<path class="st1" d="M76.21,143.83l-0.43,0.3c-0.57,0.43-0.15,0.26,0.23-0.08C75.83,144.17,76.16,143.91,76.21,143.83"/>
				<path class="st1" d="M74.98,144.76c-0.14,0.15-0.7,0.58-0.07,0.2C74.27,145.33,76.21,143.96,74.98,144.76"/>
				<path class="st1" d="M82.41,137.33c-0.7,0.62-0.1,0.17-0.46,0.53l0.55-0.47C81.89,137.94,82.15,137.63,82.41,137.33"/>
				<path class="st1" d="M94.67,121.65l0.06-0.19L94.67,121.65z"/>
				<path class="st1" d="M82.69,136.7c-0.16,0.25,0.71-0.61,0.56-0.35C83.61,135.87,82.62,136.77,82.69,136.7"/>
				<path class="st1" d="M81.15,138.39l-0.62,0.42L81.15,138.39z"/>
				<path class="st1" d="M66.01,151.87l-1.85,1.14c0.37-0.21,1.31-0.83,1.46-0.83C65.52,152.22,65.86,151.99,66.01,151.87"/>
				<path class="st1" d="M71.98,147.05c-0.28,0.15-1.18,0.84-1.43,1.01c0.07,0.06,0.92-0.66,0.72-0.44
					C71.23,147.59,71.93,147.14,71.98,147.05"/>
				<path class="st1" d="M66.16,151.35l-0.22,0.07l1.22-0.76c-0.7,0.3-2.11,1.42-1.8,1.04c-0.63,0.36-1.85,1.12-1.97,1.28
					c0.94-0.62,0.32-0.11,0.96-0.47c0.1-0.03-0.2,0.09,0.15-0.13c1.67-1.03-0.04,0.23,1.46-0.68c0.17-0.24,1.45-0.84,1.67-1.03
					C67.74,150.49,67.35,150.55,66.16,151.35"/>
				<path class="st1" d="M81.81,137.54c-0.57,0.56-0.46,0.29-0.92,0.8l0.5-0.37l-0.09,0.06l0.76-0.67L81.81,137.54z"/>
				<path class="st1" d="M100.68,109.76l0.05,0.01c0.41-0.46,1.72-2.68,2.25-3.82l-0.06,0.08"/>
				<path class="st1" d="M78.8,140.47c0.14-0.14-0.44,0.41-0.73,0.58c0,0,0.4-0.21,0.81-0.52l-0.24,0.07L78.8,140.47z"/>
				<path class="st1" d="M100.68,110.45c-0.41,0.68,0.06,0.03-0.01,0.2l-0.33,0.5c0.54-0.74,0.44-0.66,0.93-1.41l-0.63,0.9
					L100.68,110.45z"/>
				<path class="st1" d="M91.97,124.91l-0.35,0.26c0.15-0.14,0.11-0.06,0.12-0.05c-0.19,0.22-0.36,0.36-0.51,0.5
					c0.18-0.13-0.02,0.09-0.2,0.33l0.8-0.8C91.81,125.15,91.63,125.28,91.97,124.91"/>
				<path class="st1" d="M94.86,120.58l-0.75,0.95L94.86,120.58z"/>
				<polygon class="st1" points="69.96,148.36 69.75,148.7 70.27,148.23 				"/>
				<path class="st1" d="M93.64,122.27c-0.23,0.32-0.37,0.48-0.35,0.38l-0.43,0.66c0.32-0.5,0.51-0.63,0.89-1.1
					C93.34,122.67,94.11,121.73,93.64,122.27"/>
				<path class="st1" d="M61.26,154.94c-0.22,0.2-0.75,0.36-1.19,0.62c-0.28,0.14,0.74-0.37,0.42-0.14
					c-0.27,0.15-0.38,0.18-0.57,0.26c0.34-0.08,1.36-0.73,1.16-0.52L61.26,154.94z"/>
				<path class="st1" d="M63.19,153.61c-0.59,0.4-1.3,0.69-1.67,1.03C62.06,154.32,62.74,154,63.19,153.61"/>
				<polygon class="st1" points="83.29,135.34 83.98,134.73 84.17,134.5 				"/>
				<path class="st1" d="M90.23,126.86c-0.46,0.53-0.24,0.2-0.22,0.11c-0.4,0.45-0.25,0.42-0.58,0.69c0,0.11,0.68-0.74,0.74-0.71
					l0.03-0.09L90.23,126.86z"/>
				<path class="st1" d="M72.53,145.74c-0.05,0.09-1.43,1.13-0.38,0.45c0.33-0.24-0.71,0.45-0.07-0.05l0.78-0.52L72.53,145.74z"/>
				<path class="st1" d="M63.63,152.93c-0.34,0.23-1.24,0.75-1.29,0.83l0.83-0.45l-0.39,0.18L63.63,152.93z"/>
				<polygon class="st1" points="58.83,156.15 59.51,155.84 59.49,155.82 				"/>
				<path class="st1" d="M89.2,127.86c-0.27,0.3-0.49,0.62-0.66,0.86C88.69,128.48,89.41,127.75,89.2,127.86"/>
				<path class="st1" d="M95.95,118.13c-0.12,0.06,0.16-0.35-0.36,0.17c-0.16,0.25-0.27,0.51-0.62,0.89
					c0.51-0.72-0.19,0.13-0.1-0.04c-0.84,1.21,0.25-0.11,0.34-0.07c-0.22,0.22,0.16-0.25,0.45-0.64l0.07,0.03L95.95,118.13z"/>
				<path class="st1" d="M98.25,113.98l-0.02,0c0.28-0.51,0.53-0.73,0.8-1.15c0.31-0.6-0.46,0.56-0.58,0.71"/>
				<path class="st1" d="M69.78,148.08c-0.72,0.44-0.7,0.58-1.02,0.83C69.48,148.36,68.87,148.75,69.78,148.08"/>
				<path class="st1" d="M60.59,154.71c-0.09,0.05,0.17,0.03,0.62-0.23C61.16,154.43,61.25,154.39,60.59,154.71"/>
				<path class="st1" d="M80.6,137.7c0.12-0.11,0.11-0.09,0.22-0.2l-0.56,0.44l-0.09,0.17l0.55-0.45L80.6,137.7z"/>
				<path class="st1" d="M60.87,154.43l-0.9,0.49c0.68-0.28,1.88-1.07,1.88-0.94C62.24,153.67,60.96,154.38,60.87,154.43"/>
				<path class="st1" d="M87.22,130.13L87,130.33l0.14-0.03C87.39,129.99,87.18,130.21,87.22,130.13"/>
				<polygon class="st1" points="56.29,157.52 57.11,157.08 56.72,157.25 				"/>
				<polygon class="st1" points="79.6,138.56 80.12,138.2 79.85,138.37 				"/>
				<polygon class="st1" points="81.71,136.34 82.55,135.59 82.07,135.98 				"/>
				<polygon class="st1" points="95.24,118.57 95.55,118.18 95.63,118.01 				"/>
				<path class="st1" d="M59.53,155.18c-0.24,0.18,0.59-0.25-0.12,0.16l-0.39,0.17c-0.41,0.28,0.75-0.36,0.71-0.27
					C60.43,154.83,59.67,155.18,59.53,155.18"/>
				<polygon class="st1" points="67.05,149.79 67.76,149.37 67.13,149.73 				"/>
				<path class="st1" d="M85.97,131.42c-0.24,0.2-0.77,0.78-1.04,0.96C84.51,132.81,86.16,131.3,85.97,131.42"/>
				<polygon class="st1" points="57.75,156.18 57.83,156.25 58.4,155.86 				"/>
				<path class="st1" d="M53.72,158.85c-1.01,0.54-1.94,0.79-2.85,1.26C51.81,159.69,53.1,159.23,53.72,158.85"/>
				<path class="st1" d="M63.83,152.05c-0.35,0.22-0.53,0.31-0.72,0.41c0.27-0.16,0.96-0.72,1-0.82l-1.76,1.06
					c0.19-0.1,0.29-0.13,0.15,0l-0.86,0.42c-0.87,0.54-1.01,0.83-1.69,1.11l0.09-0.04c-0.88,0.5-1.07,0.59-1.82,0.94
					c0.28,0,1.9-0.87,2.01-0.77c0.79-0.32,0.95-0.59,1.06-0.62c-1.31,0.81-0.08-0.06-1.49,0.74c1.61-0.88,0.04-0.07,1.89-1.19
					l-0.32,0.24c0.43-0.28,0.8-0.47,0.67-0.46c-0.09,0.05-0.47,0.24-0.13,0.01c0.49-0.22,1.09-0.6,1.61-0.81
					C63.4,152.32,63.56,152.2,63.83,152.05"/>
				<path class="st1" d="M59.45,154.96c-0.28,0.14-0.25,0.16-0.23,0.17c0.19-0.08,0.45-0.25,0.62-0.34L59.45,154.96z"/>
				<path class="st1" d="M79.15,138.15c-0.03-0.02,0.5-0.48,0.9-0.8c-0.44,0.29-0.64,0.39-1.39,1.05c0.36-0.22,0.9-0.56,0.08,0.17
					l-0.55,0.45c0.51-0.36,1.84-1.45,1.37-0.95l-0.08,0.06l1.08-1.03C80.15,137.31,79.89,137.6,79.15,138.15"/>
				<path class="st1" d="M95.33,117.48c0.42-0.55,0.1,0.04,0.53-0.61C95.71,117.02,95.67,117.01,95.33,117.48"/>
				<path class="st1" d="M101.14,106.27c-0.63,1.19,0.23-0.04-0.72,1.55l0.4-0.47c-0.4,0.47,0.37-0.68,0.4-0.87l-0.09,0.16
					c-0.08,0.08-0.07-0.02,0.08-0.27c0.17-0.25,0.4-0.58,0.29-0.31"/>
				<path class="st1" d="M50.17,160.36c-0.13,0.15-0.5,0.33-0.67,0.43l0.95-0.41L50.17,160.36z"/>
				<path class="st1" d="M59.03,155.1c-0.56,0.28-0.86,0.53-1.19,0.62l0.44-0.12C58.43,155.47,58.71,155.33,59.03,155.1"/>
				<polygon class="st1" points="71.07,145.86 70.73,146.09 70.93,146 70.82,146.03 				"/>
				<path class="st1" d="M97.72,112.9c-0.03,0.09-0.17,0.34-0.4,0.66c-0.05,0.06-0.18,0.21-0.33,0.39
					c-0.17,0.24-0.18,0.34-0.34,0.59c-0.03,0.19,0.55-0.71,0.84-1.12c0.25-0.42,0.69-0.97,0.82-1.33L97.72,112.9z"/>
				<polygon class="st1" points="73.56,143.6 73.64,143.54 73.01,143.92 72.94,143.98 				"/>
				<polygon class="st1" points="75.64,141.63 75.71,141.56 75.12,141.98 75.05,142.05 				"/>
				<path class="st1" d="M71.2,145.22c-0.47,0.38,0.37-0.21,0.55-0.31c0.15-0.13,0.05-0.09,0.28-0.27l0.71-0.43
					C72.06,144.66,72.33,144.38,71.2,145.22"/>
				<path class="st1" d="M73.33,143.55l-0.94,0.63c0.19-0.1,0.49-0.24,0.16,0l0.9-0.65C73.52,143.46,73.17,143.68,73.33,143.55"/>
				<path class="st1" d="M62.23,152.46c-0.58,0.26-0.92,0.62-1.63,1.04c0.2-0.08,0.93-0.61,0.99-0.56l-0.32,0.24
					C62.86,152.23,60.52,153.43,62.23,152.46"/>
				<path class="st1" d="M74.33,142.61l-0.31,0.13L74.33,142.61z"/>
				<path class="st1" d="M93.3,119.85l-0.31,0.49c-0.14,0.15,0.36-0.47,0.52-0.71L93.3,119.85z"/>
				<polygon class="st1" points="63.29,151.43 64.28,150.86 63.86,151.02 				"/>
				<path class="st1" d="M59.02,154.41c0.03,0.04,0.56-0.27,0.41-0.14c-0.29,0.12-1.18,0.61-0.97,0.41
					c-0.5,0.32-1.58,0.91-1.99,1.05c-0.22,0.2-0.22,0.33,0.68-0.14c-0.28,0.13-0.21,0.07-0.31,0.1c0.54-0.29,0.82-0.42,0.58-0.25
					c0.62-0.36,1.83-1.05,2.46-1.41L59.02,154.41z"/>
				<path class="st1" d="M95.52,116.15l0.29-0.39l-0.48,0.52c0.46-0.53-0.25,0.51,0.36-0.27C95.5,116.24,95.54,116.15,95.52,116.15"
					/>
				<polygon class="st1" points="73.28,143.16 73.9,142.78 73.93,142.68 				"/>
				<path class="st1" d="M60.73,153.21c-0.43,0.28,0.05,0.05,0.41-0.15L60.73,153.21z"/>
				<path class="st1" d="M89.27,125.44l-0.68,0.74c0.34-0.37-0.11,0.26,0.46-0.41C89.16,125.61,89.36,125.38,89.27,125.44"/>
				<polygon class="st1" points="60.95,153.02 61.23,152.88 61.36,152.72 62,152.37 61.49,152.57 				"/>
				<polygon class="st1" points="75.21,141.45 74.54,141.93 74.79,141.87 74.59,141.97 				"/>
				<path class="st1" d="M82.35,133.9l0.08-0.06l-0.5,0.49l0.08-0.06c-0.22,0.22-0.85,0.87-0.97,0.99l0.49-0.38
					C81.28,134.95,83.08,133.32,82.35,133.9"/>
				<path class="st1" d="M52.06,158.64l0.78-0.3l0.09-0.06C52.94,158.31,52.06,158.64,52.06,158.64"/>
				<polygon class="st1" points="76.59,139.81 77.28,139.23 77.18,139.28 				"/>
				<path class="st1" d="M100.79,105.99l0.08-0.17c-0.74,1.36-1.52,2.48-2.35,3.79l0.89-1.1l-0.22,0.22c0,0,1.1-1.62,1.06-1.64
					c0.11-0.26-0.19,0.34-0.26,0.41l0.27-0.6c0.35-0.49,0.17-0.25,0.62-0.99C100.76,106.08,100.81,105.99,100.79,105.99"/>
				<path class="st1" d="M75.91,140.4c-0.19,0.11-0.39,0.32-0.6,0.53l0.81-0.62C76.19,140.24,76.23,140.15,75.91,140.4"/>
				<path class="st1" d="M71.68,144.13c-0.12,0.08-0.72,0.46-1.12,0.72h0.16c0.18-0.11,0.03-0.1,0.64-0.48
					c0.28-0.15,0.53-0.21,1.24-0.76C72.3,143.75,71.42,144.42,71.68,144.13"/>
				<path class="st1" d="M88.92,125.39l-0.26,0.4l0.62-0.65C88.81,125.65,89.46,124.8,88.92,125.39"/>
				<path class="st1" d="M48.32,160.47c-0.06,0.09,0.61-0.19,0.99-0.36C49.26,160.06,48.91,160.25,48.32,160.47"/>
				<path class="st1" d="M91.97,120.95l0.07-0.07l-0.28,0.4c-0.33,0.58,0.79-1.11,0.75-0.82l0.43-0.64
					C92.66,120.1,92.08,120.89,91.97,120.95"/>
				<polygon class="st1" points="70.55,145.21 70.98,144.93 71.02,144.84 				"/>
				<path class="st1" d="M61.9,151.75l-0.03-0.02c-0.56,0.42,1.92-1.15,1.24-0.59l0.5-0.34C63.17,151.06,62.75,151.2,61.9,151.75"/>
				<path class="st1" d="M47.66,160.75l-0.34,0.22C47.39,160.89,48.53,160.42,47.66,160.75"/>
				<path class="st1" d="M55.15,156.47c-0.25,0.03-1.2,0.6-1.57,0.78l-0.05,0.09c0,0-1.39,0.69-1.4,0.66
					c0.03,0.03-0.24,0.17-0.52,0.28l0.7-0.24l0.06-0.07c0.28-0.12,0.72-0.32,0.94-0.43c0.19-0.24,1.15-0.65,1.62-1.02l0.13,0
					L55.15,156.47z"/>
				<path class="st1" d="M46.8,161.11c-0.54,0.27-0.78,0.29-1.03,0.46c0.1-0.03,0.12-0.02,0.03,0.03c-1.02,0.47-0.04-0.06-1,0.34
					c0.01,0.04-1.83,0.68-1.83,0.68c1.09-0.33,2.64-0.93,3.72-1.33L46.8,161.11z"/>
				<path class="st1" d="M82.04,133.17l0.17-0.01c-0.44,0.45-0.64,0.65-1.17,1.2c-0.21,0.32,1.08-1.03,1.31-1.12l-0.05-0.03
					l0.76-0.67C82.58,132.92,82.25,133.06,82.04,133.17"/>
				<path class="st1" d="M67.21,147.77l0.42-0.29c0,0-0.25,0.14-0.49,0.29c-0.26,0.13-0.51,0.26-0.51,0.26l0.3-0.12
					c-1.75,1.16-1.39,0.58-3.1,1.78l-0.78,0.34c-0.87,0.65-2.08,1.25-2.43,1.58c-0.53,0.3-0.58,0.26-1.12,0.55
					c-0.86,0.5-0.1,0.17-0.5,0.45c0.09-0.04,0.93-0.43,0.53-0.15c0.49-0.2,1.35-0.87,1.42-0.81c0.12-0.15,1.1-0.71,1.5-0.99
					c0.27-0.02,1.86-1.2,2.05-1.16c-0.1,0.03-0.32,0.11,0.01-0.12c0.37-0.19,0.81-0.32,1.49-0.75c-0.72,0.39,0.21-0.2,0.55-0.41
					l0.06,0.05C67.13,147.96,67.93,147.35,67.21,147.77"/>
				<path class="st1" d="M72.64,142.92c0.71-0.55,0.37-0.2,0.95-0.61l-0.65,0.36L72.64,142.92z"/>
				<path class="st1" d="M70.9,144.39l0.14-0.02l-0.71,0.43c0.13-0.02-0.79,0.61,0,0.12c0.2-0.2,0.69-0.56,0.89-0.66
					C71.2,144.25,71.17,144.22,70.9,144.39"/>
				<path class="st1" d="M98.19,109.99c-0.42,0.45-0.09,0.17-0.51,0.72C97.97,110.22,97.98,110.41,98.19,109.99"/>
				<path class="st1" d="M69.36,145.5c-0.25,0.3-1.49,1.04-1.65,1.29l-0.7,0.43c-0.67,0.45-0.76,0.62-1.81,1.23l1-0.53l-0.19,0.09
					l0.66-0.45c0.68-0.43-0.37,0.31,0.47-0.23c0.12-0.15-0.73,0.39-0.52,0.19c1.32-0.91,0.84-0.44,1.89-1.21
					c-0.5,0.34-0.23,0.06,0.08-0.19c-0.33,0.36,0.65-0.47,1.03-0.66C70.33,144.91,69.23,145.65,69.36,145.5"/>
				<path class="st1" d="M48.01,160.1c-0.03-0.03,0.16-0.12,0.04-0.1l0.85-0.36c-0.82,0.25-2.05,0.92-2.85,1.19
					c-1.58,0.72,0.45-0.07,0.22,0.12l-0.73,0.36l0.51-0.16c0.93-0.42,0.04-0.1,0.39-0.29c0.23-0.2,1.68-0.75,2.2-1.05L48.01,160.1z"
					/>
				<path class="st1" d="M71.49,143.74c-0.2,0.1-0.84,0.57-0.56,0.3l0.23-0.06c-0.31,0.25-0.65,0.47-0.82,0.58
					c0.01,0.01-0.13,0.14-0.03,0.1C70.59,144.5,71.6,143.71,71.49,143.74"/>
				<path class="st1" d="M99.46,107.17c0.22-0.32,0.04-0.18,0.09-0.17c0.02,0.01-0.44,0.65-0.44,0.65c0.59-0.79-0.34,0.67,0.38-0.37
					C99.45,107.26,99.58,107.01,99.46,107.17"/>
				<path class="st1" d="M48.58,159.56l-0.08,0.06c-1.13,0.48-2.99,1.32-3.61,1.48c-0.11,0.02,0.61-0.19-0.04,0.1
					c-0.57,0.24-1.45,0.53-1.59,0.51c0.46-0.03,1.55-0.39,2.31-0.72c0.07-0.06,1.85-0.84,2.82-1.21
					C47.9,159.97,50.2,158.89,48.58,159.56"/>
				<path class="st1" d="M98.54,108.54l0.04-0.09l-0.78,1.12c0.04-0.04,0.1-0.11,0.14-0.15c-0.75,1.13-1.63,2.21-2.24,3.29
					l0.06-0.08l-0.56,1c0,0-0.68,0.86-0.7,0.84l-0.03,0.18c0.23-0.31,0.39-0.55,0.44-0.53c-0.11,0.15-0.24,0.33-0.34,0.47l0.53-0.7
					c0.32-0.49-0.25,0.31-0.17,0.14l0.65-0.87c-0.05-0.02,0.05-0.28,0.42-0.74c0.43-0.55,0.82-1.11,0.9-1.08
					c0.25-0.41,0.59-1.08,1.07-1.72C98.65,108.77,99.28,107.51,98.54,108.54"/>
				<path class="st1" d="M42.27,162.85c-0.51,0.14-1.65,0.57-2.37,0.76l0.46-0.21c-0.17,0.06-0.3,0.11-0.48,0.18l0.16-0.11
					c0.93-0.32,1.74-0.61,2.43-0.85c-0.64,0.13-2.42,0.86-2.55,0.86l-0.04,0.1c-0.09,0.04-0.3,0.1-0.4,0.12
					c1.01-0.29-0.43,0.25,0.68-0.07l-0.01-0.02l1.77-0.57C42.01,162.98,42.09,162.93,42.27,162.85"/>
				<path class="st1" d="M69.93,144.85l0.01,0.01l-1.96,1.41c0.25-0.17,0.12-0.03,0.21-0.09c-0.32,0.22-0.47,0.33-0.74,0.53
					l0.44-0.27l-0.02-0.01l0.93-0.62l-0.21,0.09c0.33-0.24,0.57-0.41,0.68-0.45C69.07,145.52,70.4,144.6,69.93,144.85"/>
				<path class="st1" d="M81.24,133.69l-1.68,1.67c1.02-0.94,0.22-0.09,0.98-0.75C80.83,134.23,81.1,133.94,81.24,133.69"/>
				<path class="st1" d="M89.88,122.92c-0.04,0.08-0.19,0.22-0.37,0.44c0.06-0.17,0.58-0.87-0.35,0.15
					c-0.27,0.4-0.77,0.78-1.02,1.08c0.3-0.17,1.34-1.24,1.59-1.43L89.88,122.92z"/>
				<path class="st1" d="M95.51,113.85c0.22-0.32,0.34-0.48,0.37-0.57c-0.05-0.02-0.37,0.47-0.6,0.79c-0.34,0.58,0.28-0.3,0.27-0.2
					c-0.15,0.24-0.29,0.39-0.35,0.47c-0.22,0.43,0.22-0.22,0.45-0.54L95.51,113.85z"/>
				<path class="st1" d="M97.93,108.94l0.16-0.15c-0.84,1.1-1.38,2.1-1.77,2.76c0.37-0.47,1.28-1.74,1.67-2.4l0.18-0.14l0.01-0.09
					c-0.09,0.17,0.08-0.07,0.14-0.15c-0.21,0.23,0.19-0.43,0.08-0.37l0.43-0.54l-0.27,0.31l0.42-0.74l0.22-0.22
					C99.03,107.24,98.34,108.48,97.93,108.94"/>
				<polygon class="st1" points="44.76,161.43 44.6,161.54 45.17,161.3 44.69,161.49 				"/>
				<path class="st1" d="M67.02,146.98c0.19-0.1-0.21,0.21-0.2,0.21c-0.42,0.27-0.75,0.37-1.05,0.61c0.28-0.27,0.86-0.39,1.43-0.8
					L67.02,146.98z"/>
				<polygon class="st1" points="78.27,136.56 79.34,135.67 79.08,135.84 				"/>
				<polygon class="st1" points="89.67,122.83 90.04,122.48 89.96,122.44 				"/>
				<path class="st1" d="M68.43,145.75c-0.46,0.37,0.35-0.22,0.38-0.19C68.56,145.73,68.76,145.53,68.43,145.75"/>
				<path class="st1" d="M77.59,137.14c-0.11,0.04-1.42,1-2.26,1.7l0.35-0.22l-1.14,1.07c0.32-0.37,1.32-1.08,1.34-1.18
					c0.29-0.14,1.08-0.76,1.67-1.18C78.39,136.64,77.1,137.61,77.59,137.14"/>
				<path class="st1" d="M74.38,140.16c-0.25,0.3,0.37-0.21,0.78-0.51C75.48,139.28,74.83,139.89,74.38,140.16"/>
				<path class="st1" d="M51.57,157.51c-0.24,0.17-1.23,0.51-1.99,0.82c-0.21,0.21-1.14,0.46-1.24,0.64
					c0.31-0.23,1.34-0.53,2.26-0.95c0.13-0.15,0.96-0.38,1.37-0.65L51.57,157.51z"/>
				<path class="st1" d="M89.54,122.45c0.09-0.06,0.63-0.64,0.27-0.19c0.43-0.41,0.94-1.23,1.05-1.28
					C90.62,121.09,90.16,121.82,89.54,122.45"/>
				<path class="st1" d="M73.8,140.69c-0.81,0.74-1.51,1.14-2.26,1.65c0.12-0.15,1.15-0.8,1.17-0.9c-0.32,0.23-0.75,0.54-1.29,0.94
					c0.72-0.65-1.07,0.74-1.14,0.69c0.06-0.07,0.11-0.03,0.45-0.25c0.08-0.06-1.6,1.3-1.39,0.98c-0.26,0.16-0.6,0.38-0.46,0.24
					l0.39-0.3l-0.7,0.54c0.57-0.4,0.01,0.13,0.76-0.38l-0.97,0.7l-0.08-0.06c-0.54,0.43,0.05,0.05-0.42,0.41
					c-0.03-0.02-0.69,0.42-0.97,0.57c0.38-0.19-0.19,0.22-0.15,0.25c-0.97,0.7-0.05-0.04-0.74,0.39h0.15
					c-0.83,0.54-0.3,0.12-0.68,0.29c1.24-0.84,1.58-1.07,2.39-1.62c-0.28,0.15,0.22-0.19-0.3,0.12l0.01,0.01
					c-1.49,1.04-3.31,2.32-4.7,3l0.48-0.34l-0.93,0.57c-0.42,0.27,0.26-0.15,0.44-0.25c-0.31,0.23-1.23,0.82-1.7,1.04l0.1-0.16
					c-0.61,0.35-1.32,0.86-1.63,0.97l0.18-0.09c-1.15,0.64-1.92,1.2-2.91,1.55c0.16-0.1-0.14-0.01,0.27-0.26
					c-0.77,0.43-0.38,0.29-1.29,0.71c0.55-0.25-0.21,0.2-0.55,0.39l-1.11,0.49c0.1-0.03,1.01-0.46,0.71-0.23
					c-0.74,0.33-1.93,1.02-2.37,1.11c0.06-0.08,0.5-0.31,0.47-0.34c-0.4,0.13-0.47,0.2-1,0.47c0.52-0.42,1.71-0.83,1.86-1.08
					c1.11-0.49,1.7-0.84,2.84-1.44l0.53-0.4c0.31-0.09,0.81-0.39,1.08-0.53c-1.06,0.54,0.18-0.22-0.44,0.1
					c-0.48,0.31-0.87,0.46-1.57,0.83c0.25-0.28,1.37-0.63,1.7-0.97c-0.62,0.31-1.92,1.01-1.8,1c-0.24,0.03-1.87,0.93-1.6,0.66
					c-0.4,0.26,0.31-0.09,0.34-0.05l-0.68,0.38c0.36-0.17,0.67-0.26,0.23-0.03c-0.58,0.21-0.42,0.25-1.15,0.59l0.53-0.13
					c-0.64,0.29-1.5,0.76-1.73,0.79c0.13,0-0.63,0.45-0.92,0.56l0.25-0.16c-0.95,0.54-2.38,1.01-2.79,1.12
					c0.36-0.16,0.78-0.39,1.09-0.46c-0.19,0.06-0.12,0-0.13-0.01c0.27,0.04,2.32-1.1,1.88-0.74c-0.14-0.01,0.62-0.46,0.3-0.38
					c0.34-0.05,1.11-0.63,1.43-0.7l-0.19-0.06c-0.19,0.22-0.67,0.26-1.41,0.72c0.29-0.1-0.08,0.05-0.12,0.14
					c-0.67,0.25-0.62,0.47-1.67,0.83c0,0,0.79-0.38,0.78-0.4c-0.8,0.38-0.14-0.02-1.3,0.52l0.13,0.01
					c-0.63,0.28-1.46,0.62-1.61,0.72c-0.67,0.23-2.16,0.96-2.15,0.82c0.27-0.12,0.47-0.18,0.76-0.27l-1.15,0.39
					c0.1-0.02-0.05,0.09-0.41,0.25c-0.34,0.18-0.65,0.24-0.84,0.32l0.16-0.09c-0.84,0.31-1.46,0.77-2.15,0.94l-0.96,0.28l0.16,0.06
					l-1.27,0.33c0.31-0.05-0.55,0.21-0.15,0.12l0.85-0.27l-0.32,0.2c-0.98,0.27-0.66,0.22-1.12,0.39c0.34-0.02,2.07-0.52,3.3-0.93
					l-0.14,0.12c0.42-0.23,0.93-0.36,0.59-0.32c1.49-0.74,3.03-1.24,4.5-2.01c0.32-0.06,0.42,0.05,1.14-0.26
					c-0.81,0.36-0.7,0.34-0.96,0.48c0.93-0.37,1.39-0.56,0.9-0.25c-0.68,0.23-1.61,0.74-1.67,0.81l0.7-0.2l-0.75,0.29
					c0.2-0.06,0.12,0,0.13,0.01c-0.33,0.2-0.92,0.38-1.14,0.42c-0.15,0.12-0.18,0.08-0.14,0.14c-0.59,0.17-2.38,1.02-3.15,1.27
					c0.1-0.02,0.3-0.08,0.31-0.07l-0.93,0.34c0.66-0.05,2.52-0.96,3.12-1.14c-0.12,0.01-0.03-0.04-0.15-0.03
					c1.09-0.46,2.68-1.13,3.95-1.66l0.13,0.01c-0.02-0.03,0.71-0.35,1.24-0.6l-0.22,0.18c1.01-0.43,0.78-0.25,1.32-0.52
					c-0.18,0.09-0.19,0.08-0.11,0.03c0.42-0.25,1.52-0.76,1.22-0.66c0.45-0.22,0.83-0.37,1.21-0.53c-0.67,0.4-0.2,0.21,0.27,0
					c0.06-0.06-0.37,0.17-0.22,0.04c0.35-0.18,0.46-0.21,0.65-0.29c0.04-0.09,0.87-0.48,0.37-0.3l0.82-0.38l-0.31,0.22
					c0.54-0.26,1.63-0.65,2.16-1.06c0.2-0.07,0.44-0.1,0.51-0.16c-0.22,0.06,0.32-0.21,0-0.13c1.08-0.53,1.34-0.56,2.7-1.39
					l-0.81,0.56c-0.07,0.07,0.46-0.23,0.22-0.06c-0.75,0.36-0.88,0.64-1.3,0.76c0.4-0.13,1.35-0.72,1.65-0.96l-0.08-0.07l0.61-0.35
					l-0.11,0.17l0.24-0.18l0.69-0.28c0.54-0.42,1.08-0.83,1.7-1.18c-0.31,0.24,0.4-0.15-0.27,0.27l-0.37,0.19l1.52-0.82l-0.6,0.24
					c0.38-0.18,1.58-0.9,2.12-1.2c0.3-0.35,1.73-1.06,1.9-1.42c1.34-0.91,2.79-1.96,3.67-2.61l0.44-0.38l-0.64,0.47
					c0.06-0.08-0.06-0.04,0.18-0.22l1.01-0.67c-0.25,0.17-0.28,0.15-0.3,0.14l0.81-0.59c-0.25,0.17-0.55,0.31,0-0.12
					c0.08-0.06,0.25-0.17,0.34-0.22l-0.28,0.15c0.53-0.31,0.94-0.87,0.94-0.74c0.21-0.21-0.33,0.23-0.21,0.08
					c0.25-0.3,0.57-0.42,0.92-0.77C74.04,140.63,74.14,140.46,73.8,140.69"/>
				<polygon class="st1" points="38.24,164.16 38.74,164.02 39.2,163.81 				"/>
				<path class="st1" d="M94.06,115.61c-0.68,0.93,0.23-0.42-0.5,0.6l0.1,0.04l0.2-0.32l0.24-0.21
					C94.51,115.17,94.78,114.68,94.06,115.61"/>
				<path class="st1" d="M66.05,147.55c-0.22,0.07-0.51,0.32-0.87,0.52C65.45,147.91,65.82,147.72,66.05,147.55"/>
				<path class="st1" d="M44.81,161.01c-0.35,0.19-0.33,0.22,0.33-0.06C44.94,161.01,45.2,160.86,44.81,161.01"/>
				<path class="st1" d="M46.13,160.29l-0.75,0.33c0.53-0.29-0.63,0.16-1.2,0.39l1-0.32c-0.36,0.18-0.4,0.29-0.12,0.16l0.8-0.41
					l0.5-0.17C46.54,160.17,46.14,160.31,46.13,160.29"/>
				<path class="st1" d="M65.25,147.87c0.06-0.07-0.26,0.28,0.5-0.2L65.25,147.87z"/>
				<path class="st1" d="M84.71,128.9c-0.34,0.24-0.96,0.76-1.33,1.2c-0.66,0.6-0.22,0.31-0.63,0.73c0.14-0.14,0.17-0.12,0.28-0.27
					l-0.08,0.06c0.16-0.23,0.74-0.67,1.06-1.02l0.21-0.1C84.11,129.54,84.33,129.23,84.71,128.9"/>
				<path class="st1" d="M89.32,122.66c-0.36,0.34-0.87,0.93-1.1,1.14c-0.36,0.45-0.86,1.04-1.27,1.47
					c0.71-0.69,0.75-0.78,1.35-1.43l0.14-0.04c0.07-0.18,0.65-0.73,0.91-1.02l-0.57,0.56L89.32,122.66z"/>
				<polygon class="st1" points="87.38,125.06 87.86,124.56 87.84,124.55 				"/>
				<path class="st1" d="M94.38,114.83c-0.09,0.07-0.44,0.53-0.47,0.61l0.07-0.07c-0.37,0.46-0.19,0.33-0.49,0.71
					C94.12,115.32,93.95,115.36,94.38,114.83"/>
				<path class="st1" d="M90.56,120.45c0.17-0.13,0.91-1.04,0.97-1.23L90.56,120.45z"/>
				<path class="st1" d="M52.15,156.71c-0.53,0.28-0.85,0.35-1.08,0.53c-0.32,0.22,0.5-0.17,0.79-0.27
					C52.39,156.69,51.49,157,52.15,156.71"/>
				<path class="st1" d="M94.29,114.31l0.07,0.03c-0.46,0.52-1,1.3-1.14,1.55c0.16-0.24,0.44-0.62,0.85-1.16l0.12-0.05l-0.3,0.38
					l0.34-0.37c0.05-0.17,0.64-0.85,0.56-0.88l0.46-0.64C95.11,113.21,94.58,114.12,94.29,114.31"/>
				<polygon class="st1" points="40.84,162.56 41.24,162.45 41.79,162.2 				"/>
				<path class="st1" d="M62.67,149.43c0.43-0.26,0.77-0.46,1.21-0.73l-0.12,0.02l0.69-0.41c-0.31,0.11-0.34,0.21-1.14,0.66
					c0.13-0.14,0.78-0.59,0.47-0.48c-0.38,0.31-1.88,1.15-2.92,1.89l0.35-0.2c-0.04,0.09-0.75,0.5-0.94,0.58
					c0.06-0.07,0.27-0.27-0.16-0.01c0.3-0.12-0.22,0.32-0.79,0.59l0.31-0.24c-0.62,0.35-1.52,0.92-1.78,0.93l0.24-0.16
					c-0.35,0.19-0.99,0.49-1.14,0.61c0.75-0.46,0.66-0.28,0.95-0.4c-0.41,0.27-1.34,0.68-1.1,0.52l-0.13,0.15
					c-0.34,0.07-0.33,0.21-0.97,0.52c0.4-0.15,0.24-0.03,0.06,0.06l0.98-0.51l-0.66,0.28c0.49-0.32,2-0.97,1.84-1l0.77-0.31
					c0.97-0.51,3.34-1.91,5.05-2.95l-1.01,0.65L62.67,149.43z"/>
				<path class="st1" d="M52.53,156.4c0,0-0.67,0.42-0.68,0.41l0.89-0.48C52.9,156.22,52.62,156.36,52.53,156.4"/>
				<polygon class="st1" points="81.46,131.95 82.45,131.09 82.53,130.92 				"/>
				<path class="st1" d="M59.84,151.42c-1.12,0.68-0.61,0.48-0.64,0.59c0.01,0.02,1.11-0.68,1.11-0.68
					C59.33,151.87,60.73,150.93,59.84,151.42"/>
				<polygon class="st1" points="49.56,157.86 50.38,157.62 50.63,157.47 				"/>
				<path class="st1" d="M40.71,162.55c-0.47,0.18-1.67,0.53-1.34,0.49c0.44-0.22,2.03-0.71,1.31-0.53L40.71,162.55z"/>
				<path class="st1" d="M48.51,158.42c0.17-0.09,0.89-0.3,1.31-0.56L48.51,158.42z"/>
				<path class="st1" d="M44.63,160.63c-0.32,0.07-0.65,0.29-1.05,0.4C44.32,160.73,44.51,160.78,44.63,160.63"/>
				<polygon class="st1" points="38.04,163.55 38.93,163.26 38.32,163.42 				"/>
				<path class="st1" d="M76.71,137.01l-0.88,0.67c0.44-0.27-0.18,0.22-0.55,0.55c0.34-0.12,1.05-0.9,1.64-1.3
					C76.45,137.3,76.63,137.07,76.71,137.01"/>
				<path class="st1" d="M83.18,129.88c-0.02-0.01-0.02-0.01-0.17,0.12c-0.28,0.27-0.19,0.22-0.16,0.23l1.03-1.04L83.18,129.88z"/>
				<path class="st1" d="M49.88,157.64l-0.06,0.07c0.18-0.08,0.74-0.32,0.62-0.32L49.88,157.64z"/>
				<polygon class="st1" points="44.49,160.6 44.74,160.45 45.03,160.33 44.1,160.74 				"/>
				<path class="st1" d="M86.23,125.97l-0.37,0.44l0.07-0.07c-0.7,0.92-0.53,0.37-1.36,1.42c0.4-0.54-0.02-0.12-0.08-0.15
					c-0.17,0.23-0.37,0.44-0.19,0.32c0.15-0.13,0.33-0.36,0.34-0.35c-0.02,0.22-0.95,0.97-1.2,1.26c0.37-0.43,1.2-1.05,1.48-1.33
					c-0.01,0.1-0.47,0.61-0.15,0.35c-0.03-0.02,0.81-0.97,0.58-0.77c0.19-0.22,0.34-0.35,0.5-0.49l-0.08,0.07
					C86.54,125.81,86.02,126.28,86.23,125.97"/>
				<path class="st1" d="M74.26,139.25c0.33-0.23,0,0.12,0.61-0.39l0.33-0.35L74.26,139.25z"/>
				<path class="st1" d="M42.45,161.46c0.59-0.19,0.18-0.08,0.55-0.23c-0.83,0.18-1.8,0.51-3.05,0.94l0.23-0.01
					c-0.3,0.1-0.71,0.23-1.07,0.35c0.71-0.18,2.02-0.53,3.47-1.03L42.45,161.46z"/>
				<path class="st1" d="M91,118.59l-0.1,0.16l0.62-0.75c-0.03,0.09,0,0.1-0.22,0.41c0.57-0.57,0.81-1.08,1.5-1.9
					C92.47,116.78,91.63,117.84,91,118.59"/>
				<path class="st1" d="M57.46,152.86c0,0-0.61,0.31-0.9,0.45l0.77-0.31C57.42,152.95,56.93,153.14,57.46,152.86"/>
				<path class="st1" d="M37.64,163.65c-0.33,0.05-1.23,0.48-1.19,0.36c0.28-0.12,0.6-0.17,0.65-0.27
					c-1.23,0.46-1.33,0.35-2.38,0.68c0.72-0.15-0.06,0.28,1.39-0.2C36.34,164.2,36.96,163.88,37.64,163.65"/>
				<path class="st1" d="M77.98,135.26l-0.12,0.15l0.45-0.38c0.1-0.05-0.03,0.09-0.02,0.1l0.77-0.63
					C78.95,134.54,78.49,134.8,77.98,135.26"/>
				<path class="st1" d="M53.6,155.26l0.18-0.09c-1,0.5,0.22-0.04-0.39,0.29C53.56,155.35,53.63,155.28,53.6,155.26"/>
				<path class="st1" d="M70.45,142.71c0.32-0.23,0.17-0.11,0.31-0.24c-1.09,0.72-1.17,0.9-2.14,1.59
					C68.93,143.82,70.53,142.77,70.45,142.71"/>
				<path class="st1" d="M86.05,125.98c-0.35,0.35-0.49,0.39-0.97,0.99c-0.05,0.19,0.64-0.62,0.87-0.82
					C85.88,126.21,85.99,126.05,86.05,125.98"/>
				<polygon class="st1" points="94.16,113.87 94.39,113.65 94.26,113.7 				"/>
				<path class="st1" d="M77.17,135.96l0.5-0.46c-0.88,0.66,0.08-0.28-1.15,0.71c0.78-0.61-0.09,0.16-0.14,0.24
					c-0.15,0.13-0.56,0.42-0.44,0.27l0.37-0.32l-0.59,0.4l0.02,0.01c-0.75,0.63-0.11,0.04-0.06-0.04c0.7-0.56,0.89-0.65,1.37-1.01
					c0.17-0.12-0.36,0.21,0.24-0.29c-0.5,0.46-0.88,0.54-1.34,1.03c-0.62,0.6-1.49,1.15-2.15,1.84c0.06-0.19-1.62,1.29-1.28,0.84
					c-0.31,0.24-0.43,0.39-0.58,0.51c1.02-0.77-0.22,0.31,0.06,0.16c-0.45,0.37-1.54,1.07-1.38,1.07c-0.39,0.18-1.46,1.02-1.87,1.29
					l0.15-0.13c-0.51,0.33-0.22,0.19-0.44,0.38c1.18-0.87,1.98-1.33,3.04-2.17c0.21-0.08,1.32-0.89,0.68-0.31
					c-0.21,0.19-0.62,0.47-0.5,0.32c-0.97,0.68-0.22,0.31-1.1,0.93l-0.84,0.55l0.12-0.03c-0.23,0.18-0.33,0.22-0.59,0.38l0.17-0.11
					c-0.29,0.25-0.5,0.44-0.83,0.67l0.8-0.58c0.17,0.01-0.42,0.39-0.53,0.55c1.17-0.88,1.52-1.09,2.46-1.68
					c0.64-0.46-0.11,0.03-0.21,0.07c1.08-0.84,0.61-0.24,1.58-1.05c-0.17,0.12-1.18,0.76-0.58,0.27c0.99-0.79,2.71-2.16,2.98-2.54
					c0.52-0.45,1.06-0.77,1.55-1.24c0.05-0.08-0.18,0.11-0.35,0.22l0.11-0.04c-0.89,0.77-1.11,0.85-1.46,1.07l0.78-0.61
					c-0.23,0.18-0.18,0.11-0.27,0.16c1.74-1.56,1.18-0.69,2.55-1.93C77.78,135.57,77.43,135.79,77.17,135.96"/>
				<path class="st1" d="M94.67,112.86c-0.06,0.18,0.25-0.31,0.41-0.55C94.95,112.46,94.81,112.61,94.67,112.86"/>
				<path class="st1" d="M77.65,135.37l0.68-0.46C77.96,135.13,78.48,134.68,77.65,135.37"/>
				<path class="st1" d="M67.94,144.5l-0.17,0.1c0.03,0.02-0.21,0.2,0.22-0.07C67.86,144.56,68.22,144.35,67.94,144.5"/>
				<polygon class="st1" points="77.92,135.1 78.51,134.59 78.09,134.88 				"/>
				<path class="st1" d="M79.41,133.58c-0.58,0.55-1.2,1.03-1.8,1.54c0.18-0.11,0.11,0.07,0.69-0.45
					C78.05,134.75,79.3,133.86,79.41,133.58"/>
				<path class="st1" d="M84.06,128.02c-0.32,0.25-1.06,1.02-1.35,1.17c-0.65,0.7,0.36-0.23-0.37,0.54c0.19-0.22,0.65-0.6,0.73-0.77
					l0.03,0.02l-0.04-0.03c0.74-0.76,0.37-0.22,0.91-0.77C83.95,128.17,83.7,128.36,84.06,128.02"/>
				<path class="st1" d="M69.43,143.12c-0.2,0.09-0.47,0.36-0.86,0.66C68.99,143.51,69.23,143.33,69.43,143.12"/>
				<path class="st1" d="M42.11,160.85l0.48-0.01c0.17-0.09,0.24-0.16,0.73-0.31C43.65,160.33,42.14,160.89,42.11,160.85"/>
				<path class="st1" d="M92.7,115.58c-0.29,0.38-0.67,0.83-0.94,1.12l0.45-0.61c-0.54,0.68-1.58,1.86-2.28,2.67l-0.44,0.63
					c-0.1,0.06-0.5,0.49,0.02-0.2c-0.66,1.05-1.67,1.89-1.76,2.25c-0.31,0.36-0.53,0.56-0.8,0.84c-0.09,0.06,0.09-0.16,0.21-0.31
					c-0.57,0.65-0.77,0.96-1.56,1.81c1.2-1.27,2.66-2.7,3.63-3.8c-0.02-0.01-0.59,0.75-0.65,0.72c0.82-0.99,0.85-1.02,1.48-1.79
					c-0.27,0.29,0.12-0.25-0.15,0.04l1.07-1.26c-0.27,0.39-0.26,0.5-0.28,0.59c0.21-0.32,0.24-0.51,0.71-1.02
					c-0.02,0.19,0.2-0.32,0.54-0.58C92.11,116.34,92.93,115.47,92.7,115.58"/>
				<path class="st1" d="M32.77,164.79c0.11,0,0.51-0.09,0.53-0.07l1.26-0.38C34.24,164.4,33.13,164.64,32.77,164.79"/>
				<path class="st1" d="M58.45,151.42c0,0-1.03,0.59-1,0.62C57.67,151.85,58.59,151.42,58.45,151.42"/>
				<path class="st1" d="M95.91,109.27c0.18-0.23,0.43-0.44,0.33-0.28C96.16,109.06,96.63,108.15,95.91,109.27"/>
				<polygon class="st1" points="40.31,161.51 41.47,161.12 40.5,161.43 				"/>
				<path class="st1" d="M95.82,109.73l-0.28,0.29L95.82,109.73z"/>
				<path class="st1" d="M45.86,158.87c0.15-0.12-0.21,0.05-0.39,0.13c0.02,0.03,0.97-0.35,1.02-0.43L45.86,158.87z"/>
				<polygon class="st1" points="58.24,151.34 58.75,151.18 58.6,151.17 				"/>
				<path class="st1" d="M80.36,131.62c0.17-0.12,0.32-0.25,0.57-0.54C80.84,131.15,80.64,131.35,80.36,131.62"/>
				<polygon class="st1" points="81.65,130.1 81.93,129.93 82.12,129.72 				"/>
				<polygon class="st1" points="29.49,165.8 30.28,165.61 29.58,165.77 				"/>
				<path class="st1" d="M83.49,127.93c-0.25,0.07-2.07,2.04-2.45,2.26c-0.32,0.35,0.14,0.08-0.62,0.72
					c0.99-0.83,1.84-1.74,2.76-2.51C83.56,127.96,82.58,128.8,83.49,127.93"/>
				<path class="st1" d="M39.53,161.75c-1.03,0.39-0.61,0.16-1.14,0.42c0.02,0.03-0.05,0.1,0.05,0.07c0.47-0.18,0.14-0.14,0.52-0.27
					l0.31-0.06L39.53,161.75z"/>
				<path class="st1" d="M68.68,143.14c-0.34,0.22-0.9,0.62-0.93,0.72C68.7,143.28,67.74,143.73,68.68,143.14"/>
				<path class="st1" d="M50.36,155.99l-1.24,0.47L50.36,155.99z"/>
				<path class="st1" d="M94.58,110.96c0.19-0.42-0.31,0.48-0.51,0.7c-0.45,0.83-1.19,1.83-1.81,2.66c0.4-0.34,1.11-1.53,0.95-1.11
					l1.14-1.76l-0.13,0.06L94.58,110.96z"/>
				<path class="st1" d="M87.64,121.88c-0.18,0.12,0.77-0.86,0.34-0.45c-0.17,0.18-0.41,0.42-0.89,0.9
					c-0.52,0.67,0.75-0.67-0.07,0.27l0.49-0.48C87.74,121.83,87.71,121.81,87.64,121.88"/>
				<polygon class="st1" points="97.25,105.86 97.52,105.38 97.17,105.94 				"/>
				<path class="st1" d="M57.9,150.61c0.09,0.11,1.68-0.88,2.51-1.43C58.63,150.39,59.03,149.88,57.9,150.61"/>
				<path class="st1" d="M28.33,165.58c-0.67,0.21,0.14,0.04-0.24,0.18c0.07-0.06,1.07-0.31,1.54-0.48L28.33,165.58z"/>
				<path class="st1" d="M69.55,141.78c-0.25,0.17-0.56,0.4-0.69,0.54C69.61,141.82,68.8,142.27,69.55,141.78"/>
				<polygon class="st1" points="79.55,131.58 79.84,131.42 79.94,131.26 				"/>
				<path class="st1" d="M71.81,139.72l-0.82,0.55c0.54-0.4,0.2-0.08,0.38-0.17C71.6,139.92,71.91,139.68,71.81,139.72"/>
				<path class="st1" d="M84.66,125.28c-0.38,0.53-1.35,1.52-1.55,1.81c1.07-1.11,0.53-0.66,1.55-1.72l0.08,0.04l0.72-0.89
					C84.82,125.25,85.38,124.49,84.66,125.28"/>
				<path class="st1" d="M43.07,159.42c0.21-0.04-0.05,0.1,0.53-0.11L43.07,159.42z"/>
				<path class="st1" d="M59.94,149.39l0.02-0.1L59.94,149.39z"/>
				<path class="st1" d="M41.22,160.14c0.07,0.1,0.75-0.28,1.36-0.43L41.22,160.14z"/>
				<path class="st1" d="M59.49,149.37c0.1-0.03,0.4-0.15,0.89-0.47L59.49,149.37z"/>
				<polygon class="st1" points="72.22,138.86 72.72,138.52 72.7,138.5 				"/>
				<polygon class="st1" points="42.25,159.6 41.56,159.8 42.27,159.63 42.23,159.57 				"/>
				<polygon class="st1" points="58.7,149.94 59.04,149.73 58.47,149.98 				"/>
				<polygon class="st1" points="63.87,145.92 64.88,145.31 64.17,145.69 				"/>
				<path class="st1" d="M66.98,143.48c-0.28,0.2-0.48,0.36-0.87,0.64C66.37,143.95,66.97,143.59,66.98,143.48"/>
				<path class="st1" d="M34.74,162.86c-0.28,0.1-0.06,0.08,0.05,0.08C34.36,162.98,35.74,162.63,34.74,162.86"/>
				<path class="st1" d="M64.15,145.79c-0.53,0.29-1.4,0.77-1.98,1.14c-1.19,0.83,1.44-0.86,1.61-0.84
					C63.18,146.44,64,145.9,64.15,145.79"/>
				<path class="st1" d="M89.27,118.27c0.17-0.23,0.42-0.53,0.45-0.61c-0.5,0.69-0.81,1.06-1.35,1.73c0.06,0.03,0.58-0.75,0.8-0.96
					l-0.43,0.62l0.18-0.12c0.12-0.15-0.28,0.18,0.22-0.41c0.2-0.22,0.21-0.11,0.53-0.58L89.27,118.27z"/>
				<polygon class="st1" points="64.18,145.57 64.88,145.18 64.61,145.32 				"/>
				<path class="st1" d="M66.76,143.54c-0.22,0.19-0.79,0.58-0.67,0.56C66.67,143.71,66.53,143.72,66.76,143.54"/>
				<polygon class="st1" points="33.13,163.37 33.68,163.17 33.99,163.12 33.87,163.1 				"/>
				<path class="st1" d="M55.69,151.74c-0.11,0.03-0.44,0.22-0.54,0.26l0.3-0.09C55.62,151.81,55.7,151.75,55.69,151.74"/>
				<polygon class="st1" points="83.93,125.63 84.36,125.22 84.53,124.99 				"/>
				<path class="st1" d="M71.74,138.98l-0.11,0.04c-0.44,0.36-1.06,0.83-1.98,1.42l0.38-0.19c-0.18,0.22-1.14,0.78-1.27,0.92
					c-0.17,0.1,0.22-0.19,0.2-0.2c-0.32,0.21-0.73,0.48-0.99,0.65c-0.03,0.1,1.51-0.97,0.77-0.35l-1.19,0.85
					c0.31-0.11-0.7,0.52-0.47,0.46c0.67-0.43,1.26-1.03,2.05-1.49l-0.09,0.05c0.03-0.09,0.56-0.4,0.8-0.56
					c-0.63,0.46-1.09,0.93-1.58,1.15c0.1-0.04,0.8-0.45,1.08-0.7c0.05-0.08,0.12-0.15,0.51-0.44l0.01,0.01l0.35-0.33
					c-0.3,0.12-1.22,0.95-1.16,0.76c0.37-0.3,1.3-1,1.13-0.78l-0.2,0.08l1.77-1.35c0.09-0.04-0.4,0.41,0.12-0.03l-0.31,0.13
					L71.74,138.98z"/>
				<path class="st1" d="M32.32,163.54l0.08-0.05l-0.68,0.18c0.31-0.06,0.74-0.09,1.1-0.24L32.32,163.54z"/>
				<path class="st1" d="M37.11,161.35l-0.36,0.16c1.2-0.31,1.1-0.46,2.45-0.88C38.98,160.66,37.7,161.18,37.11,161.35"/>
				<path class="st1" d="M43.55,158.63l0.09-0.05c0,0-0.68,0.24-0.68,0.22l-0.09,0.04C42.87,158.84,43.55,158.63,43.55,158.63"/>
				<path class="st1" d="M87.54,120.52c-0.07,0.07-0.25,0.29-0.34,0.35c0.37-0.44,0.17-0.32,0.84-1.02l-0.39,0.32
					c0.28-0.17-0.42,0.51-0.55,0.65l0.14-0.13c-0.53,0.66-0.66,0.8-1.09,1.41c0.28-0.27-0.46,0.69,0.24-0.09l-0.03-0.02l0.48-0.48
					C86.63,121.6,87.64,120.47,87.54,120.52"/>
				<path class="st1" d="M41.77,159.28c-0.12,0-0.48,0.16-0.66,0.24l0.5-0.13C41.41,159.44,41.78,159.29,41.77,159.28"/>
				<path class="st1" d="M69.74,140.27c0.14-0.12,0.34-0.21,0.39-0.29c-0.12,0.03-0.88,0.63-1.15,0.77l1.06-0.6L69.74,140.27z"/>
				<path class="st1" d="M88.74,118.14c-0.55,0.76-0.14,0.44-1.06,1.55l0.07-0.06c-1.22,1.44-1.94,2-2.84,3.19
					c1.38-1.48,2.84-2.97,3.97-4.61C88.35,118.77,89.5,117.26,88.74,118.14"/>
				<polygon class="st1" points="66.15,143.29 66.94,142.71 66.67,142.86 				"/>
				<path class="st1" d="M65.26,143.9c-0.04,0.09-0.53,0.42-0.52,0.42c0,0,1.16-0.74,1.16-0.74
					C65.86,143.54,65.68,143.63,65.26,143.9"/>
				<path class="st1" d="M81.78,127.3c0.11-0.05,0.57-0.53,0.92-0.85C82.38,126.68,81.9,127.16,81.78,127.3"/>
				<path class="st1" d="M66.26,142.89c0.7-0.4,0.52-0.43,1.22-0.83C67.91,141.57,66.62,142.7,66.26,142.89"/>
				<path class="st1" d="M30.3,163.58l-0.46,0.17l0.56-0.19l0.33-0.01C31.01,163.44,30.41,163.57,30.3,163.58"/>
				<polygon class="st1" points="68.11,141.25 68.64,140.95 68.58,140.91 				"/>
				<path class="st1" d="M32.71,162.73c-0.28,0.1-0.87,0.24-1.02,0.34c0.42-0.04,0.44-0.2,1.25-0.35L32.71,162.73z"/>
				<path class="st1" d="M70.01,139.66c-0.25,0.15-0.94,0.68-0.83,0.65C69.54,140.12,70.06,139.69,70.01,139.66"/>
				<path class="st1" d="M29.49,163.91l-0.88,0.23L29.49,163.91z"/>
				<path class="st1" d="M67.82,141.26c-0.37,0.3-0.87,0.74-0.2,0.31c-0.1,0.04,0.76-0.59,0.19-0.21c0.57-0.38,0.08-0.17,0.93-0.68
					l-1.01,0.63L67.82,141.26z"/>
				<path class="st1" d="M35.26,161.2c0.27,0.05,1.41-0.5,2.01-0.64c0.29-0.09,0.61-0.14,0.42-0.08l1.18-0.48
					C38.17,160.18,36.19,160.86,35.26,161.2"/>
				<path class="st1" d="M56.33,150.11l-0.86,0.33l0.18-0.08l-1.52,0.86c0.31-0.16,0.5-0.27,0.78-0.42l-0.11,0.16
					c0.7-0.5,1.07-0.52,1.68-0.84c0.51-0.28,0.62-0.44,1.25-0.74C57.13,149.58,57.07,149.79,56.33,150.11"/>
				<path class="st1" d="M39.4,159.44c-0.08,0.06-0.26,0.13-0.15,0.12c-0.59,0.16-2.29,0.74-3.34,1.08
					c0.68-0.21-0.06,0.09-0.14,0.14c1.33-0.43,1.64-0.5,2.62-0.77l-0.01-0.01c0.55-0.21,0.86-0.28,1.08-0.3
					C38.78,159.87,40.75,159.02,39.4,159.44"/>
				<path class="st1" d="M40.88,159.03l-0.75,0.27C40.52,159.2,40.43,159.23,40.88,159.03"/>
				<path class="st1" d="M66.29,142.55c0.63-0.46,0.17-0.22,0.57-0.5c-0.5,0.31-2.39,1.7-3.29,2.13c-0.44,0.35-1.67,1-1.68,1.12
					c-0.15,0.09-0.86,0.5-1.36,0.78l0.09-0.05c-0.27,0.27-1.26,0.75-1.2,0.8c0.43-0.24,1.3-0.71,1.42-0.86l0.13-0.01
					c0.6-0.34-0.32,0.09,0.7-0.5c2.15-1.21-0.93,0.79,0.96-0.27c-0.28,0,2.45-1.42,2.58-1.83c0.74-0.61,0.77-0.46,1.34-0.97
					L66.29,142.55z"/>
				<path class="st1" d="M35.27,161.04c-0.56,0.2-0.83,0.31-0.71,0.32C35.22,161.15,34.72,161.26,35.27,161.04"/>
				<path class="st1" d="M61.77,145.56c0.03-0.1-0.51,0.3-0.93,0.55c0.2-0.06,0.13-0.01-0.38,0.29l0.78-0.43
					C61.48,145.8,61.06,145.92,61.77,145.56"/>
				<path class="st1" d="M80.65,127.08c0.18-0.1,0.65-0.47,0.87-0.77L80.65,127.08z"/>
				<polygon class="st1" points="48.3,154.33 48.33,154.37 48.75,154.14 				"/>
				<path class="st1" d="M56,149.11c0.63-0.29-0.35,0.31-0.25,0.27c0.06,0.06,1.33-0.63,0.88-0.3l0.04-0.09c0,0,0.39-0.2,0.77-0.41
					c0.37-0.23,0.74-0.46,0.74-0.46C57.37,148.49,56.67,148.81,56,149.11"/>
				<path class="st1" d="M49.56,153.64l-0.73,0.3l0.14,0.02C49.51,153.73,48.52,154.01,49.56,153.64"/>
				<path class="st1" d="M51.79,152.17c-0.34,0.05,0.62-0.3,0.92-0.53l-1.31,0.66L51.79,152.17z"/>
				<path class="st1" d="M54.13,150.26c-0.15,0.12-1.28,0.69-1.22,0.62c0.22-0.04,1.08-0.49,1.58-0.79c0.3-0.09,0.44-0.08,1.3-0.53
					C55.65,149.55,55.21,149.77,54.13,150.26"/>
				<path class="st1" d="M51.83,151.93c0.39-0.13-0.47,0.32,0.41-0.12C52.89,151.41,51.78,152.02,51.83,151.93"/>
				<path class="st1" d="M60.54,145.96l-0.23,0.17l0.73-0.47C60.86,145.74,60.8,145.81,60.54,145.96"/>
				<path class="st1" d="M49.48,153.12c-1,0.41-2.49,1.11-3.1,1.26c-0.06,0.07-0.47,0.32,0.18,0.08c-0.68,0.21-1.44,0.61-2.18,0.9
					l-0.2,0.21c0.45-0.35,1.42-0.64,2.38-1.11l-0.13-0.01c1.26-0.53,0.77-0.25,2.22-0.86c-0.45,0.19-0.75,0.27-0.6,0.15
					c0.51-0.12,1.61-0.7,1.97-0.72C50.07,152.94,50.29,152.78,49.48,153.12"/>
				<path class="st1" d="M41.64,157.37l-0.67,0.21l0.59-0.16C41.74,157.35,41.73,157.34,41.64,157.37"/>
				<path class="st1" d="M35.99,159.72c-0.41,0.07,1.09-0.44,1.37-0.53l-0.23-0.01c-0.31,0.22-1.02,0.35-1.76,0.63l0.02,0.04
					c-1.14,0.36-1.1,0.41-2.25,0.7c1.05-0.28,0.03,0.06,0.06,0.09c0.26-0.1,1.92-0.68,2.25-0.72c-0.16,0.11-0.67,0.21-0.55,0.21
					c0.49-0.14,1.66-0.62,2.18-0.7C37.41,159.25,36.4,159.64,35.99,159.72"/>
				<path class="st1" d="M43.88,155.94c-1.07,0.48-0.49,0.3-1.7,0.74c-0.43,0.22,0.86-0.27,1.21-0.46c0.1-0.02-0.16,0.11-0.33,0.2
					c-0.8,0.38-1.93,0.71-2.55,0.98c0.46-0.15,0.51-0.09,0.5-0.11c0.65-0.22-0.03-0.04,0.41-0.23c0.48-0.13,1.13-0.36,1.68-0.58
					l-0.28,0.1c0.73-0.3,1.02-0.54,2.05-0.93C44.49,155.8,43.91,155.98,43.88,155.94"/>
				<path class="st1" d="M39.24,158.4l-2.1,0.65c-0.07,0.05,0.31-0.06,0.13,0.02l-1.16,0.32c-0.02-0.03,0.35-0.16,0.71-0.31
					l-0.94,0.31l0.62-0.27c-0.27,0.1-0.38,0.12-0.58,0.17l-0.7,0.32c0.85-0.27,0.25,0.04,0.64-0.06c1.03-0.35,1.61-0.51,2.22-0.8
					c0.2-0.04,0.62-0.11,1.07-0.3C39.15,158.44,39.06,158.47,39.24,158.4"/>
				<path class="st1" d="M34.19,160.46c0.59-0.13,1.04-0.34,1.59-0.54C35.64,159.88,34.68,160.33,34.19,160.46"/>
				<path class="st1" d="M72.93,134.57c-0.11,0.26,0.7-0.63,0.9-0.72C73.79,133.82,73.17,134.4,72.93,134.57"/>
				<path class="st1" d="M41.49,157.17l-0.7,0.32l0.76-0.23C41.43,157.25,41.61,157.17,41.49,157.17"/>
				<polygon class="st1" points="45.07,155.16 45.53,154.97 45.04,155.12 				"/>
				<path class="st1" d="M57.66,147.09l-0.53,0.4c0.9-0.55-0.09,0.18,0.59-0.21c0.06-0.07,0.86-0.74,1.73-1.2
					C58.91,146.34,57.75,147.18,57.66,147.09"/>
				<path class="st1" d="M45.48,154.62c0.93-0.35,0.67-0.37,1.24-0.56C46.07,154.3,45.7,154.44,45.48,154.62"/>
				<polygon class="st1" points="42.45,156.1 43.11,155.88 43.07,155.83 				"/>
				<path class="st1" d="M32.41,160.65l-0.86,0.22L32.41,160.65z"/>
				<path class="st1" d="M63.45,142.36c0.52-0.28,0.44-0.24,1.04-0.69C64.37,141.68,63.86,142.12,63.45,142.36"/>
				<path class="st1" d="M50.82,151.39c-0.66,0.4-1.77,0.96-2.2,1.02c0.24-0.01-0.95,0.46-0.55,0.36
					C48.21,152.66,50.64,151.77,50.82,151.39"/>
				<path class="st1" d="M53.8,149.12c0.37-0.28-0.53,0.24-0.83,0.33c0.18-0.08,0.1-0.03,0.2-0.07c-0.42,0.23-0.97,0.46-0.94,0.5
					c0.09-0.04,0.42-0.23,0.53-0.26c0.2-0.05-0.48,0.31-0.55,0.37l0.87-0.3c0.68-0.36,0.29-0.23,0.26-0.25l0.66-0.26
					c0.05-0.08-0.23,0.03-0.27-0.01c0.55-0.23,0.98-0.45,1.73-0.87C55.21,148.44,53.85,149.17,53.8,149.12"/>
				<path class="st1" d="M45.77,153.94c-0.73,0.28-1.89,0.94-2.31,1.01c-0.9,0.37-1.09,0.59-1.57,0.74c0.19-0.06,0.55-0.2,0.49-0.13
					c0.02,0.04-1.76,0.6-1.76,0.6l0.09-0.03l-0.71,0.28c0.24,0.01,1.3-0.42,1.96-0.62c-0.41,0.08,0.62-0.28,0.88-0.4
					c-0.26,0.12-0.45,0.19-0.37,0.12c0.72-0.3,0.73-0.28,1.34-0.58c-0.16,0.09-0.77,0.23,0.12-0.15c1.08-0.45,0.18,0.08,1.6-0.56
					C45.89,154.08,47.15,153.41,45.77,153.94"/>
				<path class="st1" d="M55.36,148.07c-0.28,0.12,0.17-0.09,0.01,0.01l-0.54,0.25c0.53-0.26-0.12,0.14-0.03,0.1
					C55.14,148.24,55.74,147.93,55.36,148.07"/>
				<polygon class="st1" points="28.94,161.31 30.03,161.1 29.69,161.09 				"/>
				<path class="st1" d="M47.12,152.94c0.09-0.03-0.57,0.33,0.07,0.08C47.16,152.98,47.15,152.97,47.12,152.94"/>
				<path class="st1" d="M48.88,151.86c0,0,0.3-0.12,0.59-0.23c0.29-0.14,0.57-0.28,0.57-0.28l-0.02-0.03c0,0-0.28,0.14-0.56,0.29
					C49.16,151.74,48.88,151.86,48.88,151.86"/>
				<path class="st1" d="M52.01,150.05l-0.59,0.32l0.28-0.1C51.6,150.3,51.85,150.16,52.01,150.05"/>
				<polygon class="st1" points="29.41,160.99 29.62,160.97 29.87,160.84 				"/>
				<path class="st1" d="M50.08,151.12c-1.05,0.52-1.59,0.57-2.73,1.08C48.08,151.92,48.34,152.1,50.08,151.12"/>
				<path class="st1" d="M40.27,156.15c-0.27,0.1-0.92,0.32-0.89,0.37c0.52-0.23,0.56-0.18,0.94-0.29
					C40.68,156.08,40.38,156.15,40.27,156.15"/>
				<path class="st1" d="M43.25,154.53l-0.01-0.01c-0.39,0.11,0.31-0.06-0.51,0.26c0.47-0.16,0.8-0.34,1.77-0.77
					C44.07,154.19,43.7,154.34,43.25,154.53"/>
				<path class="st1" d="M41.32,155.24l0.75-0.24l0.16-0.09C42.24,154.91,41.33,155.26,41.32,155.24"/>
				<path class="st1" d="M43.02,154.4c-0.98,0.4-1.04,0.49-1.79,0.73C41.57,155.14,43.02,154.4,43.02,154.4"/>
				<path class="st1" d="M49.54,150.37c-0.33,0.19,0.61-0.29,1.02-0.54L49.54,150.37z"/>
				<path class="st1" d="M35.76,156.87c0.47-0.14,0.45-0.17,0.9-0.33L35.76,156.87z"/>
				<path class="st1" d="M36.58,156.42c-0.31,0.04,0.68-0.33,1.33-0.52l-1.3,0.4L36.58,156.42z"/>
			</g>
		</g>
	</g>
</g>
</svg>
